<svg width="28" height="28" viewBox="0 0 28 28" fill="none" xmlns="http://www.w3.org/2000/svg">
<path fill-rule="evenodd" clip-rule="evenodd" d="M5.29659 2.33325H9.23992C10.8849 2.33325 12.2033 3.67492 12.2033 5.32108V9.29825C12.2033 10.9549 10.8849 12.2849 9.23992 12.2849H5.29659C3.66325 12.2849 2.33325 10.9549 2.33325 9.29825V5.32108C2.33325 3.67492 3.66325 2.33325 5.29659 2.33325ZM5.29659 15.7146H9.23992C10.8849 15.7146 12.2033 17.0457 12.2033 18.7024V22.6796C12.2033 24.3246 10.8849 25.6662 9.23992 25.6662H5.29659C3.66325 25.6662 2.33325 24.3246 2.33325 22.6796V18.7024C2.33325 17.0457 3.66325 15.7146 5.29659 15.7146ZM22.7034 2.33325H18.76C17.115 2.33325 15.7967 3.67492 15.7967 5.32108V9.29825C15.7967 10.9549 17.115 12.2849 18.76 12.2849H22.7034C24.3367 12.2849 25.6667 10.9549 25.6667 9.29825V5.32108C25.6667 3.67492 24.3367 2.33325 22.7034 2.33325ZM18.76 15.7146H22.7034C24.3367 15.7146 25.6667 17.0457 25.6667 18.7024V22.6796C25.6667 24.3246 24.3367 25.6662 22.7034 25.6662H18.76C17.115 25.6662 15.7967 24.3246 15.7967 22.6796V18.7024C15.7967 17.0457 17.115 15.7146 18.76 15.7146Z" fill="#484848"/>
</svg>
