<svg width="28" height="28" viewBox="0 0 28 28" fill="none" xmlns="http://www.w3.org/2000/svg">
<path fill-rule="evenodd" clip-rule="evenodd" d="M14.6411 16.0183H16.6395C17.1131 16.0183 17.5058 15.6333 17.5058 15.1549C17.5058 14.6649 17.1131 14.2799 16.6395 14.2799H14.6411V12.2616C14.6411 11.7832 14.2599 11.3982 13.7863 11.3982C13.3127 11.3982 12.92 11.7832 12.92 12.2616V14.2799H10.9332C10.4596 14.2799 10.0669 14.6649 10.0669 15.1549C10.0669 15.6333 10.4596 16.0183 10.9332 16.0183H12.92V18.0366C12.92 18.5149 13.3127 18.8999 13.7863 18.8999C14.2599 18.8999 14.6411 18.5149 14.6411 18.0366V16.0183ZM22.5611 10.5298C22.8326 10.5267 23.1283 10.5233 23.3969 10.5233C23.6857 10.5233 23.9167 10.7566 23.9167 11.0483V20.4283C23.9167 23.3216 21.5949 25.6666 18.7187 25.6666H9.53552C6.53222 25.6666 4.08337 23.2049 4.08337 20.1716V7.59492C4.08337 4.70159 6.41671 2.33325 9.29295 2.33325H15.4613C15.7616 2.33325 15.9926 2.57825 15.9926 2.86992V6.62659C15.9926 8.76159 17.7368 10.5116 19.8507 10.5233C20.3445 10.5233 20.7797 10.5269 21.1607 10.5302C21.457 10.5327 21.7205 10.5349 21.953 10.5349C22.1174 10.5349 22.3306 10.5325 22.5611 10.5298ZM22.8784 8.82715C21.9289 8.83065 20.8096 8.82715 20.0044 8.81898C18.7269 8.81898 17.6746 7.75615 17.6746 6.46582V3.39048C17.6746 2.88765 18.2787 2.63798 18.6241 3.00082C19.2494 3.65747 20.1087 4.56016 20.964 5.45867C21.8168 6.35447 22.6656 7.24612 23.2746 7.88565C23.6119 8.23915 23.3647 8.82598 22.8784 8.82715Z" fill="#484848"/>
</svg>
