<svg width="28" height="28" viewBox="0 0 28 28" fill="none" xmlns="http://www.w3.org/2000/svg">
<path d="M20.9049 16.7067C20.6027 16.9996 20.4639 17.4231 20.5327 17.8384L21.5699 23.5784C21.6574 24.0649 21.4521 24.5572 21.0449 24.8384C20.6459 25.1301 20.1151 25.1651 19.6799 24.9317L14.5127 22.2367C14.3331 22.1411 14.1336 22.0897 13.9294 22.0839H13.6132C13.5036 22.1002 13.3962 22.1352 13.2982 22.1889L8.12991 24.8967C7.87441 25.0251 7.58507 25.0706 7.30157 25.0251C6.61091 24.8944 6.15007 24.2364 6.26324 23.5422L7.30157 17.8022C7.37041 17.3834 7.23157 16.9576 6.92941 16.6601L2.71657 12.5767C2.36424 12.2349 2.24174 11.7216 2.40274 11.2584C2.55907 10.7964 2.95807 10.4592 3.43991 10.3834L9.23824 9.54225C9.67924 9.49675 10.0666 9.22841 10.2649 8.83175L12.8199 3.59341C12.8806 3.47675 12.9587 3.36941 13.0532 3.27841L13.1582 3.19675C13.2131 3.13608 13.2761 3.08591 13.3461 3.04508L13.4732 2.99841L13.6716 2.91675H14.1627C14.6014 2.96225 14.9876 3.22475 15.1894 3.61675L17.7782 8.83175C17.9649 9.21325 18.3277 9.47808 18.7466 9.54225L24.5449 10.3834C25.0349 10.4534 25.4444 10.7917 25.6066 11.2584C25.7594 11.7262 25.6276 12.2396 25.2682 12.5767L20.9049 16.7067Z" fill="#484848"/>
</svg>
