<svg width="26" height="26" viewBox="0 0 26 26" fill="none" xmlns="http://www.w3.org/2000/svg">
<path fill-rule="evenodd" clip-rule="evenodd" d="M17.9998 1.33325H21.8108C23.3876 1.33325 24.6667 2.62347 24.6667 4.21513V8.05804C24.6667 9.6485 23.3876 10.9399 21.8108 10.9399H17.9998C16.4218 10.9399 15.1427 9.6485 15.1427 8.05804V4.21513C15.1427 2.62347 16.4218 1.33325 17.9998 1.33325Z" stroke="#200E32" stroke-width="1.5" stroke-linecap="round" stroke-linejoin="round"/>
<path fill-rule="evenodd" clip-rule="evenodd" d="M4.19045 1.33325H8.00028C9.57825 1.33325 10.8574 2.62347 10.8574 4.21513V8.05804C10.8574 9.6485 9.57825 10.9399 8.00028 10.9399H4.19045C2.61248 10.9399 1.33337 9.6485 1.33337 8.05804V4.21513C1.33337 2.62347 2.61248 1.33325 4.19045 1.33325Z" stroke="#200E32" stroke-width="1.5" stroke-linecap="round" stroke-linejoin="round"/>
<path fill-rule="evenodd" clip-rule="evenodd" d="M4.19045 15.0598H8.00028C9.57825 15.0598 10.8574 16.35 10.8574 17.9429V21.7846C10.8574 23.3763 9.57825 24.6665 8.00028 24.6665H4.19045C2.61248 24.6665 1.33337 23.3763 1.33337 21.7846V17.9429C1.33337 16.35 2.61248 15.0598 4.19045 15.0598Z" stroke="#200E32" stroke-width="1.5" stroke-linecap="round" stroke-linejoin="round"/>
<path fill-rule="evenodd" clip-rule="evenodd" d="M17.9998 15.0598H21.8108C23.3876 15.0598 24.6667 16.35 24.6667 17.9429V21.7846C24.6667 23.3763 23.3876 24.6665 21.8108 24.6665H17.9998C16.4218 24.6665 15.1427 23.3763 15.1427 21.7846V17.9429C15.1427 16.35 16.4218 15.0598 17.9998 15.0598Z" stroke="#200E32" stroke-width="1.5" stroke-linecap="round" stroke-linejoin="round"/>
</svg>
