<svg width="24" height="26" viewBox="0 0 24 26" fill="none" xmlns="http://www.w3.org/2000/svg">
<path d="M9.0157 23.2332V19.6554C9.01568 18.7453 9.71122 18.0059 10.573 17.9998H13.7296C14.5955 17.9998 15.2974 18.741 15.2974 19.6554V19.6554V23.2443C15.2972 24.017 15.8812 24.6485 16.6127 24.6666H18.7171C20.815 24.6666 22.5156 22.8707 22.5156 20.6554V20.6554V10.4774C22.5044 9.60588 22.1169 8.78749 21.4634 8.25512L14.2663 2.13277C13.0054 1.06675 11.213 1.06675 9.95217 2.13277L2.78659 8.26623C2.1306 8.79645 1.74245 9.6162 1.73438 10.4885V20.6554C1.73438 22.8707 3.43502 24.6666 5.53287 24.6666H7.6373C8.38695 24.6666 8.99466 24.0248 8.99466 23.2332V23.2332" stroke="#200E32" stroke-width="1.5" stroke-linecap="round" stroke-linejoin="round"/>
</svg>
