<svg width="21" height="25" viewBox="0 0 21 25" fill="none" xmlns="http://www.w3.org/2000/svg">
<ellipse cx="10.5087" cy="6.49112" rx="5.57437" ry="5.57437" stroke="#200E32" stroke-width="1.5" stroke-linecap="round" stroke-linejoin="round"/>
<path fill-rule="evenodd" clip-rule="evenodd" d="M1.66664 19.8182C1.66515 19.4264 1.75279 19.0393 1.92294 18.6863C2.45688 17.6184 3.9626 17.0524 5.21203 16.7961C6.11312 16.6038 7.02665 16.4754 7.94582 16.4117C9.6476 16.2622 11.3592 16.2622 13.061 16.4117C13.9801 16.4761 14.8936 16.6045 15.7948 16.7961C17.0442 17.0524 18.5499 17.565 19.0839 18.6863C19.4261 19.4059 19.4261 20.2413 19.0839 20.9609C18.5499 22.0822 17.0442 22.5947 15.7948 22.8404C14.8948 23.0406 13.9809 23.1727 13.061 23.2355C11.6759 23.3529 10.2843 23.3743 8.89624 23.2995C8.57588 23.2995 8.26619 23.2995 7.94582 23.2355C7.02936 23.1735 6.119 23.0414 5.22271 22.8404C3.9626 22.5947 2.46756 22.0822 1.92294 20.9609C1.75366 20.6038 1.6661 20.2134 1.66664 19.8182Z" stroke="#200E32" stroke-width="1.5" stroke-linecap="round" stroke-linejoin="round"/>
</svg>
