<svg width="24" height="24" viewBox="0 0 24 24" fill="none" xmlns="http://www.w3.org/2000/svg">
<path fill-rule="evenodd" clip-rule="evenodd" d="M12.8331 2.0143L15.5351 7.4498C15.6704 7.72397 15.9318 7.9153 16.2351 7.95963L22.2843 8.83347C22.5293 8.86613 22.7498 8.99447 22.9003 9.19047C23.1826 9.55797 23.1394 10.0783 22.8011 10.3945L18.4168 14.6341C18.1939 14.8441 18.0948 15.1521 18.1531 15.452L19.2031 21.4346C19.2766 21.9305 18.9383 22.3948 18.4424 22.4753C18.2371 22.5068 18.0271 22.4741 17.8404 22.382L12.4528 19.5575C12.1821 19.4105 11.8578 19.4105 11.5871 19.5575L6.15978 22.3971C5.70594 22.6281 5.15061 22.4566 4.90328 22.0121C4.80878 21.8325 4.77611 21.6283 4.80878 21.4288L5.85878 15.4461C5.91128 15.1475 5.81211 14.8406 5.59511 14.6295L1.18744 10.391C0.82811 10.034 0.825776 9.45297 1.18394 9.09363C1.18511 9.09247 1.18628 9.09014 1.18744 9.08897C1.33561 8.9548 1.51761 8.86497 1.71478 8.82997L7.76511 7.95613C8.06728 7.9083 8.32744 7.7193 8.46511 7.44513L11.1648 2.0143C11.2733 1.7938 11.4658 1.62464 11.6991 1.54764C11.9336 1.46947 12.1903 1.48814 12.4108 1.59897C12.5916 1.6888 12.7398 1.83464 12.8331 2.0143Z" stroke="#200E32" stroke-width="1.5" stroke-linecap="round" stroke-linejoin="round"/>
</svg>
