<svg width="53" height="53" viewBox="0 0 53 53" fill="none" xmlns="http://www.w3.org/2000/svg">
<path d="M26.5 53C41.1355 53 53 41.1355 53 26.5C53 11.8645 41.1355 0 26.5 0C11.8645 0 0 11.8645 0 26.5C0 41.1355 11.8645 53 26.5 53Z" fill="#FDE57F"/>
<path d="M45.8367 6.7854H44.4792V14.8359H45.8367C46.8655 14.8359 47.6995 14.002 47.6995 12.9732V8.64816C47.6995 7.61943 46.8655 6.7854 45.8367 6.7854Z" fill="#5F6AB9"/>
<path d="M45.8367 14.8358H44.4792V22.8863H45.8367C46.8655 22.8863 47.6995 22.0524 47.6995 21.0236V16.6986C47.6995 15.6698 46.8655 14.8358 45.8367 14.8358Z" fill="#14C0EB"/>
<path d="M45.8367 22.8865H44.4792V30.937H45.8367C46.8655 30.937 47.6995 30.1031 47.6995 29.0742V24.7492C47.6995 23.7205 46.8655 22.8865 45.8367 22.8865Z" fill="#BBEF89"/>
<path d="M45.8367 30.937H44.4792V38.9875H45.8367C46.8655 38.9875 47.6995 38.1536 47.6995 37.1248V32.7998C47.6995 31.771 46.8655 30.937 45.8367 30.937Z" fill="#FB6467"/>
<path d="M45.8367 11.2865H44.4792V14.8359H45.8367C46.8655 14.8359 47.6995 14.002 47.6995 12.9732V9.42371C47.6995 10.4525 46.8655 11.2865 45.8367 11.2865Z" fill="#524FA1"/>
<path d="M45.8367 19.337H44.4792V22.8865H45.8367C46.8655 22.8865 47.6995 22.0525 47.6995 21.0237V17.4742C47.6995 18.5031 46.8655 19.337 45.8367 19.337Z" fill="#029DCC"/>
<path d="M45.8367 27.3875H44.4792V30.937H45.8367C46.8655 30.937 47.6995 30.103 47.6995 29.0741V25.5248C47.6995 26.5536 46.8655 27.3875 45.8367 27.3875Z" fill="#7DD776"/>
<path d="M45.8367 35.4382H44.4792V38.9876H45.8367C46.8655 38.9876 47.6995 38.1536 47.6995 37.1248V33.5754C47.6995 34.6042 46.8655 35.4382 45.8367 35.4382Z" fill="#EF525A"/>
<path d="M8.28241 45.0101C8.28241 45.2994 8.32112 45.5796 8.39276 45.8465C9.31125 46.7065 10.2908 47.5018 11.3246 48.2253C11.3836 48.2285 11.4429 48.2304 11.5028 48.2304H41.6168V41.7898H11.5028C9.72418 41.7898 8.28241 43.2316 8.28241 45.0101Z" fill="#DAECF7"/>
<path d="M21.5767 41.7898H11.5025C9.72399 41.7898 8.28223 43.2316 8.28223 45.0101C8.28223 45.2994 8.32105 45.5796 8.39257 45.8465C9.31107 46.7065 10.2906 47.5019 11.3244 48.2253C11.3835 48.2285 11.4428 48.2304 11.5025 48.2304H21.5768C19.7983 48.2304 18.3565 46.7887 18.3565 45.0101C18.3565 43.2316 19.7982 41.7898 21.5767 41.7898Z" fill="#B2D9ED"/>
<path d="M11.5025 3.38672C9.72399 3.38672 8.28223 4.82848 8.28223 6.60699C8.28223 8.29212 8.28223 43.4836 8.28223 45.01C8.28223 43.2315 9.72399 41.7898 11.5025 41.7898C12.314 41.7898 45.2856 41.7898 43.7232 41.7898C44.2065 41.7898 44.5983 41.398 44.5983 40.9147V4.34486C44.5983 3.81569 44.1693 3.38682 43.6403 3.38682C42.7164 3.38672 10.501 3.38672 11.5025 3.38672Z" fill="#7AA0EA"/>
<path d="M43.7232 41.7898C43.533 41.7898 42.7809 41.7898 41.6165 41.7898V48.2304H41.668C42.7012 47.5079 43.6802 46.7136 44.5983 45.8547V40.9147C44.5983 41.398 44.2065 41.7898 43.7232 41.7898Z" fill="#6D85D2"/>
<path d="M26.4999 53C30.8733 53 34.9988 51.9398 38.6348 50.0636V48.2305H11.3317C15.6291 51.2356 20.8581 53 26.4999 53Z" fill="#B2D9ED"/>
<path d="M18.3694 51.7282C18.3616 51.6366 18.3567 51.5443 18.3567 51.4507C18.3567 49.6722 19.7985 48.2305 21.5771 48.2305H11.5028C11.4477 48.2305 11.3927 48.2319 11.3381 48.2346C13.4732 49.7269 15.8383 50.9126 18.3694 51.7282Z" fill="#92D1EA"/>
<path d="M14.7228 3.38672C12.861 3.38672 11.6657 3.38672 11.5025 3.38672C9.72399 3.38672 8.28223 4.82848 8.28223 6.60699C8.28223 8.29212 8.28223 43.4836 8.28223 45.01C8.28223 43.2315 9.72399 41.7898 11.5025 41.7898C11.6427 41.7898 12.8424 41.7898 14.7228 41.7898V3.38672Z" fill="#6D85D2"/>
<path d="M38.635 48.2303V50.0635C39.6708 49.5291 40.6662 48.9274 41.6168 48.266V48.2303H40.7417C40.5515 48.2303 39.7992 48.2303 38.635 48.2303Z" fill="#5F6AB9"/>
<path d="M11.3318 48.2303C11.3886 48.2303 11.4443 48.2303 11.5026 48.2303C11.4428 48.2303 11.3835 48.2283 11.3245 48.2251C11.3268 48.2269 11.3294 48.2285 11.3318 48.2303Z" fill="#5F6AB9"/>
<path d="M8.39271 45.8464C8.32118 45.5796 8.28237 45.2994 8.28237 45.01C8.28237 44.5652 8.28237 41.2614 8.28237 36.7614C8.28237 28.3484 8.28237 15.7533 8.28237 9.83691C6.61535 9.95917 5.3006 11.3493 5.3006 13.0476C5.3006 14.2129 5.3006 31.4041 5.3006 42.4021C6.22986 43.639 7.26553 44.7909 8.39271 45.8464Z" fill="#5F6AB9"/>
<path d="M35.9526 30.1213H22.6288C22.1347 30.1213 21.7342 29.7209 21.7342 29.2267C21.7342 28.7327 22.1347 28.3322 22.6288 28.3322H35.9526C36.4467 28.3322 36.8472 28.7326 36.8472 29.2267C36.8471 29.7208 36.4466 30.1213 35.9526 30.1213Z" fill="#6D85D2"/>
<path d="M35.9526 33.6556H22.6288C22.1347 33.6556 21.7342 33.2552 21.7342 32.761C21.7342 32.267 22.1347 31.8665 22.6288 31.8665H35.9526C36.4467 31.8665 36.8472 32.2669 36.8472 32.761C36.8471 33.2551 36.4466 33.6556 35.9526 33.6556Z" fill="#6D85D2"/>
<path d="M32.6214 37.1899H25.9596C25.4655 37.1899 25.065 36.7895 25.065 36.2953C25.065 35.8013 25.4655 35.4008 25.9596 35.4008H32.6214C33.1155 35.4008 33.516 35.8012 33.516 36.2953C33.516 36.7894 33.1155 37.1899 32.6214 37.1899Z" fill="#6D85D2"/>
<path d="M33.9782 15.4972L32.5501 13.0237L29.3641 14.8632L30.7922 17.3367C31.3001 18.2164 32.4251 18.5179 33.3049 18.0099C34.1847 17.502 34.4861 16.377 33.9782 15.4972Z" fill="#14C0EB"/>
<path d="M32.3852 16.6214L30.9571 14.1479L30.8684 13.9945L29.364 14.8631L30.7921 17.3366C31.3 18.2164 32.425 18.5178 33.3048 18.0099C33.5209 17.885 33.702 17.7228 33.8449 17.5364C33.2579 17.4932 32.7017 17.1697 32.3852 16.6214Z" fill="#029DCC"/>
<path d="M27.6619 16.3905L24.5444 21.7901C26.6016 23.052 29.2905 21.578 29.2905 19.1305C29.2905 17.9478 28.6322 16.9191 27.6619 16.3905Z" fill="#FB6467"/>
<path d="M25.9606 19.337L24.5444 21.79C25.7607 22.5361 27.6014 22.4789 28.7868 20.8289C27.6055 20.8895 26.5415 20.2887 25.9606 19.337Z" fill="#EF525A"/>
<path d="M23.4722 17.5713C22.6111 19.0626 23.1221 20.9697 24.6135 21.8307L27.7316 16.4299C26.2403 15.569 24.3332 16.0799 23.4722 17.5713Z" fill="#FDE57F"/>
<path d="M26.0094 19.4129C25.6914 18.9242 25.506 18.3414 25.506 17.7149C25.506 17.0885 25.6914 16.5057 26.0094 16.017C22.9015 16.183 21.9495 20.2898 24.6136 21.8304L26.0094 19.4129Z" fill="#FDCF49"/>
<path d="M33.8987 16.3905L30.7812 21.7901C31.2551 22.0808 31.8125 22.2487 32.4092 22.2487C34.1313 22.2487 35.5273 20.8526 35.5273 19.1306C35.5273 17.9478 34.869 16.9191 33.8987 16.3905Z" fill="#FB6467"/>
<path d="M32.1974 19.337L30.7812 21.79C31.2573 22.0821 31.8178 22.2484 32.4086 22.2485C32.4088 22.2485 32.409 22.2485 32.4091 22.2485C33.5616 22.2485 34.3801 21.7244 35.0235 20.8289C33.8422 20.8895 32.7783 20.2887 32.1974 19.337Z" fill="#EF525A"/>
<path d="M29.709 17.5713C28.8479 19.0626 29.3589 20.9697 30.8503 21.8307L33.9684 16.4299C32.4771 15.569 30.57 16.0799 29.709 17.5713Z" fill="#FDE57F"/>
<path d="M32.2462 19.4129C31.9282 18.9242 31.7428 18.3414 31.7428 17.7149C31.7428 17.0885 31.9282 16.5057 32.2462 16.017C29.1699 16.1812 28.1697 20.2802 30.8504 21.8304L32.2462 19.4129Z" fill="#FDCF49"/>
<path d="M32.5757 13.0684L31.1734 10.6395C30.6654 9.75972 29.5404 9.45828 28.6606 9.96623C27.7808 10.4742 27.4794 11.5992 27.9873 12.479L29.3897 14.9079L32.5757 13.0684Z" fill="#BBEF89"/>
<path d="M29.5805 11.7637C29.1973 11.1001 29.2749 10.2971 29.7136 9.72444C29.3585 9.69835 28.9922 9.77475 28.6606 9.96615C27.7808 10.4741 27.4794 11.5991 27.9873 12.4789L29.3897 14.9078L30.8941 14.0392L29.5805 11.7637Z" fill="#7DD776"/>
</svg>
