<svg width="55" height="39" viewBox="0 0 55 39" fill="none" xmlns="http://www.w3.org/2000/svg">
<path fill-rule="evenodd" clip-rule="evenodd" d="M31.9998 2.33325H35.8108C37.3876 2.33325 38.6667 3.62347 38.6667 5.21513V9.05804C38.6667 10.6485 37.3876 11.9399 35.8108 11.9399H31.9998C30.4218 11.9399 29.1427 10.6485 29.1427 9.05804V5.21513C29.1427 3.62347 30.4218 2.33325 31.9998 2.33325Z" stroke="#484848" stroke-width="1.5" stroke-linecap="round" stroke-linejoin="round"/>
<path fill-rule="evenodd" clip-rule="evenodd" d="M18.1904 2.33325H22.0003C23.5782 2.33325 24.8574 3.62347 24.8574 5.21513V9.05804C24.8574 10.6485 23.5782 11.9399 22.0003 11.9399H18.1904C16.6125 11.9399 15.3334 10.6485 15.3334 9.05804V5.21513C15.3334 3.62347 16.6125 2.33325 18.1904 2.33325Z" stroke="#484848" stroke-width="1.5" stroke-linecap="round" stroke-linejoin="round"/>
<path fill-rule="evenodd" clip-rule="evenodd" d="M18.1904 16.0598H22.0003C23.5782 16.0598 24.8574 17.35 24.8574 18.9429V22.7846C24.8574 24.3763 23.5782 25.6665 22.0003 25.6665H18.1904C16.6125 25.6665 15.3334 24.3763 15.3334 22.7846V18.9429C15.3334 17.35 16.6125 16.0598 18.1904 16.0598Z" stroke="#484848" stroke-width="1.5" stroke-linecap="round" stroke-linejoin="round"/>
<path fill-rule="evenodd" clip-rule="evenodd" d="M31.9998 16.0598H35.8108C37.3876 16.0598 38.6667 17.35 38.6667 18.9429V22.7846C38.6667 24.3763 37.3876 25.6665 35.8108 25.6665H31.9998C30.4218 25.6665 29.1427 24.3763 29.1427 22.7846V18.9429C29.1427 17.35 30.4218 16.0598 31.9998 16.0598Z" stroke="#484848" stroke-width="1.5" stroke-linecap="round" stroke-linejoin="round"/>
<path d="M17.3247 37.041C17.147 37.041 17.0228 37.0251 16.9521 36.9932V36.2378C17.0456 36.2583 17.1424 36.2686 17.2427 36.2686C17.4113 36.2686 17.5537 36.2378 17.6699 36.1763C17.7884 36.1125 17.8921 36.0076 17.981 35.8618L16.3267 32.0679H17.2598L18.4185 34.9458H18.4766L19.5977 32.0679H20.5205L19.0098 35.5884C18.9027 35.839 18.799 36.0464 18.6987 36.2104C18.6007 36.3745 18.4857 36.5238 18.3535 36.6582C18.2236 36.7904 18.0744 36.8872 17.9058 36.9487C17.7371 37.0103 17.5435 37.041 17.3247 37.041ZM23.8277 34.5186H23.0211C22.9801 34.3294 22.8889 34.179 22.7477 34.0674C22.6064 33.9535 22.4229 33.8965 22.1974 33.8965C21.9057 33.8965 21.6778 34.0036 21.5138 34.2178C21.352 34.432 21.2711 34.7327 21.2711 35.1201C21.2711 35.512 21.3531 35.8174 21.5172 36.0361C21.6812 36.2549 21.908 36.3643 22.1974 36.3643C22.4184 36.3643 22.5995 36.313 22.7408 36.2104C22.8844 36.1079 22.9778 35.9598 23.0211 35.7661H23.8277C23.7799 36.1649 23.6124 36.4827 23.3253 36.7197C23.0405 36.9567 22.6656 37.0752 22.2008 37.0752C21.638 37.0752 21.1993 36.9032 20.8849 36.5591C20.5704 36.215 20.4132 35.7354 20.4132 35.1201C20.4132 34.5117 20.5704 34.0378 20.8849 33.6982C21.1993 33.3564 21.6368 33.1855 22.1974 33.1855C22.6668 33.1855 23.0439 33.3075 23.3287 33.5513C23.6158 33.7928 23.7822 34.1152 23.8277 34.5186ZM25.4533 35.2603C25.4374 35.4858 25.4134 35.6864 25.3815 35.8618C25.3496 36.0373 25.3029 36.2002 25.2414 36.3506C25.1822 36.501 25.1081 36.6263 25.0192 36.7266C24.9304 36.8245 24.821 36.9009 24.6911 36.9556C24.5612 37.0103 24.4108 37.0376 24.2399 37.0376C24.1283 37.0376 24.0337 37.0239 23.9562 36.9966V36.2446C24.0155 36.2606 24.0839 36.2686 24.1613 36.2686C24.3322 36.2686 24.4564 36.1774 24.5339 35.9951C24.6136 35.8128 24.6638 35.5519 24.6843 35.2124L24.8073 33.2607H27.487V37H26.6428V33.9375H25.5456L25.4533 35.2603ZM28.6546 38.3569C28.4791 38.3569 28.3675 38.3524 28.3196 38.3433V37.6494C28.3629 37.6585 28.4404 37.6631 28.5521 37.6631C28.7321 37.6631 28.8745 37.6255 28.9793 37.5503C29.0864 37.4751 29.1673 37.3521 29.222 37.1812L29.2664 37.0171L27.93 33.2607H28.8597L29.7347 36.1797H29.7928L30.6644 33.2607H31.5599L30.2098 37.1196C30.0525 37.5822 29.8589 37.9035 29.6287 38.0835C29.4008 38.2658 29.0761 38.3569 28.6546 38.3569ZM34.5253 33.9375H32.8539V37H32.0063V33.2607H34.5253V33.9375ZM35.8706 37H35.0332V33.2607H35.8706V35.7354H35.9287L37.5557 33.2607H38.3896V37H37.5557V34.5083H37.4941L35.8706 37Z" fill="#484848"/>
</svg>
