<svg width="53" height="53" viewBox="0 0 53 53" fill="none" xmlns="http://www.w3.org/2000/svg">
<g clip-path="url(#clip0)">
<path d="M26.5 53C41.1355 53 53 41.1355 53 26.5C53 11.8645 41.1355 0 26.5 0C11.8645 0 0 11.8645 0 26.5C0 41.1355 11.8645 53 26.5 53Z" fill="#BBEF89"/>
<path d="M18.5852 47.9432C18.5022 48.6684 18.1273 49.4247 17.5571 49.8347L16.7649 50.4044C21.3647 50.4044 27.3701 50.4044 31.9527 50.4044L31.1605 49.8347C30.5902 49.4246 30.2153 48.6684 30.1323 47.9431L29.6884 43.962H19.0291L18.5852 47.9432Z" fill="#B2D9ED"/>
<path d="M23.9178 43.962H19.0291L18.5852 47.9432C18.5022 48.6685 18.1273 49.4247 17.5571 49.8347L16.7649 50.4043C18.5267 50.4043 20.4949 50.4043 22.5101 50.4043L23.0026 49.8347C23.871 48.8302 23.6239 46.8242 23.9178 43.962Z" fill="#92D1EA"/>
<path d="M46.0855 8.66113H6.90366C2.61501 13.3695 0 19.6293 0 26.5C0 33.2598 2.53241 39.4271 6.6985 44.1086H46.0855C47.6192 44.1086 48.8741 42.8537 48.8741 41.32V11.4496C48.8741 9.91595 47.6192 8.66113 46.0855 8.66113Z" fill="#DAECF7"/>
<path d="M9.72622 41.3201V11.4496C9.72622 9.91593 10.9811 8.66101 12.5148 8.66101H6.90366C2.61501 13.3695 0 19.6293 0 26.5C0 33.2597 2.53241 39.4271 6.6985 44.1086H12.5148C10.9811 44.1086 9.72622 42.8538 9.72622 41.3201Z" fill="#B2D9ED"/>
<path d="M33.483 50.1855C28.294 50.1855 20.4526 50.1855 15.2352 50.1855C15.072 50.1855 14.9158 50.2152 14.7698 50.2668C18.3061 52.0156 22.2879 53 26.5002 53C29.0252 53 31.4563 53 33.483 53C34.257 53 34.8903 52.3667 34.8903 51.5928C34.8903 50.8188 34.257 50.1855 33.483 50.1855Z" fill="#DAECF7"/>
<path d="M23.2998 50.1855C20.4019 50.1855 17.5582 50.1855 15.2349 50.1855C15.0718 50.1855 14.9156 50.2152 14.7695 50.2668C17.1393 51.4387 19.7098 52.2653 22.415 52.6844C21.388 51.8495 21.9762 50.1855 23.2998 50.1855Z" fill="#B2D9ED"/>
<path d="M46.0855 8.66113H6.90366C2.61501 13.3695 0 19.6293 0 26.5C0 30.8102 1.02988 34.8796 2.85569 38.4768C13.1862 38.4768 46.4006 38.4768 48.874 38.4768V11.4496C48.8741 9.92195 47.6257 8.66113 46.0855 8.66113Z" fill="#5F6AB9"/>
<path d="M9.72623 8.66113H6.90367C2.61501 13.3695 0 19.6293 0 26.5C0 30.8102 1.02988 34.8796 2.85569 38.4768C4.58709 38.4768 6.96184 38.4768 9.72623 38.4768V8.66113Z" fill="#524FA1"/>
<path d="M46.0553 35.1865V11.9361C46.0553 11.6732 45.8423 11.4602 45.5794 11.4602H4.68074C3.92528 12.5542 3.24932 13.7071 2.6626 14.9118V35.1865C2.6626 35.4493 2.87574 35.6624 3.13846 35.6624C4.91137 35.6624 43.0689 35.6624 45.5793 35.6624C45.8423 35.6625 46.0553 35.4493 46.0553 35.1865Z" fill="#14C0EB"/>
<path d="M24.3594 42.0036C24.3111 42.0036 24.2617 41.9987 24.2144 41.9888C24.1671 41.9789 24.1207 41.9652 24.0763 41.9463C24.0319 41.9286 23.9885 41.9049 23.948 41.8782C23.9076 41.8516 23.8701 41.8211 23.8355 41.7865C23.802 41.752 23.7704 41.7146 23.7437 41.6741C23.717 41.6336 23.6943 41.5913 23.6756 41.5468C23.6569 41.5014 23.643 41.455 23.6332 41.4076C23.6242 41.3602 23.6194 41.312 23.6194 41.2637C23.6194 41.2153 23.6242 41.1659 23.6332 41.1186C23.643 41.0712 23.6569 41.0248 23.6756 40.9804C23.6943 40.936 23.717 40.8927 23.7437 40.8522C23.7703 40.8117 23.802 40.7742 23.8355 40.7398C23.8701 40.7061 23.9076 40.6746 23.948 40.6479C23.9884 40.6213 24.0319 40.5986 24.0763 40.5799C24.1207 40.5612 24.1671 40.5473 24.2144 40.5375C24.3101 40.5188 24.4088 40.5188 24.5035 40.5375C24.5508 40.5474 24.5972 40.5612 24.6426 40.5799C24.687 40.5987 24.7295 40.6213 24.7699 40.6479C24.8103 40.6746 24.8488 40.7061 24.8824 40.7398C24.917 40.7742 24.9475 40.8117 24.9742 40.8522C25.0008 40.8927 25.0236 40.936 25.0423 40.9804C25.061 41.0248 25.0749 41.0712 25.0848 41.1186C25.0946 41.1659 25.0996 41.2153 25.0996 41.2637C25.0996 41.312 25.0946 41.3603 25.0848 41.4076C25.0749 41.455 25.061 41.5014 25.0423 41.5468C25.0236 41.5912 25.0009 41.6336 24.9742 41.6741C24.9476 41.7146 24.917 41.752 24.8824 41.7865C24.8488 41.8211 24.8103 41.8516 24.7699 41.8782C24.7295 41.9049 24.687 41.9286 24.6426 41.9463C24.5972 41.9651 24.5508 41.9789 24.5035 41.9888C24.4561 41.9987 24.4078 42.0036 24.3594 42.0036Z" fill="#92D1EA"/>
<path d="M6.67175 8.92159V35.6624H42.047V7.40881H8.12304C7.61954 7.89368 7.13571 8.39853 6.67175 8.92159Z" fill="url(#paint0_linear)"/>
<path d="M9.72615 7.40881H8.1229C7.6194 7.89358 7.13557 8.39853 6.67151 8.92149V35.6623H9.72615V7.40881Z" fill="#B2D9ED"/>
<path d="M41.1677 2.41833H15.4286C12.585 3.72781 10.0128 5.52536 7.82007 7.70478H42.0471V3.2977C42.0471 2.81211 41.6534 2.41833 41.1677 2.41833Z" fill="#656582"/>
<path d="M9.72641 7.70495V5.98669C9.06381 6.52912 8.42688 7.10176 7.82007 7.70495H9.72641Z" fill="#585877"/>
<path d="M12.4026 5.80132C11.9344 5.80132 11.5832 5.36893 11.6775 4.91729C11.7525 4.51575 12.1555 4.25521 12.5476 4.33615C12.92 4.41576 13.1425 4.73127 13.1425 5.06139C13.1425 5.46851 12.8121 5.80132 12.4026 5.80132Z" fill="#FDCF49"/>
<path d="M14.8295 5.80138C14.4331 5.80138 14.0896 5.48245 14.0896 5.06145C14.0896 4.58156 14.5352 4.24554 14.9746 4.33622C15.3311 4.41096 15.5695 4.71395 15.5695 5.06145C15.5696 5.47065 15.237 5.80138 14.8295 5.80138Z" fill="#BBEF89"/>
<path d="M38.0411 5.80151H18.1099C17.7012 5.80151 17.37 5.47026 17.37 5.06158C17.37 4.6529 17.7012 4.32166 18.1099 4.32166H38.0411C38.4498 4.32166 38.7811 4.6529 38.7811 5.06158C38.7811 5.47026 38.4498 5.80151 38.0411 5.80151Z" fill="#585877"/>
<g clip-path="url(#clip1)">
<path d="M33.2674 26.4979C33.0059 25.8764 32.4842 25.3748 31.603 25.1374C31.647 25.1528 30.0351 24.5862 28.2279 23.9509H21.7849L20.7357 24.3132H20.7342L20.7345 24.3137C20.5419 24.3819 18.6583 25.0494 18.4098 25.1374C17.6577 25.3188 17.0293 25.7997 16.737 26.5194C16.6371 26.7639 16.6552 26.683 16.1581 29.1913C18.6054 32.3912 22.3982 34.3452 26.5442 34.3733C29.5545 34.3733 32.2008 33.4478 34.3876 31.8562C33.3079 26.3564 33.3521 26.7003 33.2674 26.4979Z" fill="#DAECF7"/>
<path d="M16.5997 26.9769C16.4298 27.8303 16.2837 28.5622 16.158 29.1916C16.4913 29.6274 16.851 30.0418 17.2351 30.4323C17.577 28.5584 17.9625 26.4464 17.969 26.4155C18.0969 25.7959 18.4265 25.2942 18.9614 24.9418C18.2288 25.2013 17.8064 25.2635 17.3202 25.6944C16.9617 26.012 16.7089 26.4376 16.5997 26.9769Z" fill="#B2D9ED"/>
<path d="M22.7502 33.8051C23.9527 34.1663 25.2259 34.3644 26.544 34.3733C26.6145 34.3725 26.8776 34.377 27.2592 34.3596V26.842H22.7501V33.8051H22.7502Z" fill="#14C0EB"/>
<path d="M22.7504 33.8052C23.1938 33.9384 23.6467 34.0493 24.108 34.1368V26.8422H22.7504V33.8052Z" fill="#00ADDC"/>
<path d="M27.2594 22.9993L27.2608 21.7598C25.8232 22.5276 24.1072 22.5141 22.7504 21.8372V22.9993V27.0368C24.066 27.3873 25.941 27.3882 27.2594 27.0373V22.9993Z" fill="#EAB5AC"/>
<path d="M24.1078 22.2719C23.6196 22.1907 23.1522 22.0377 22.7501 21.8372C22.7501 22.4978 22.7501 26.5957 22.7501 27.0368C23.1429 27.1414 23.6248 27.2173 24.1078 27.2607V22.2719Z" fill="#DB9E95"/>
<path d="M19.1182 29.1058C18.8933 29.1058 18.7109 29.2882 18.7109 29.5131V31.7265C18.975 31.9255 19.2465 32.1151 19.5255 32.2941V29.5132C19.5255 29.2881 19.3432 29.1058 19.1182 29.1058Z" fill="#B2D9ED"/>
<path d="M28.228 23.951L27.2596 23.2101V34.3597C27.2615 34.3596 27.2634 34.3596 27.2653 34.3595L29.1006 29.9093C29.1956 29.73 29.1665 29.5103 29.0282 29.3618L28.3305 28.6132C28.166 28.4367 28.1811 28.1589 28.3637 28.0014L29.2888 27.2029C29.4755 27.0417 29.5329 26.7764 29.4295 26.5525L28.228 23.951Z" fill="#B2D9ED"/>
<path d="M20.5728 26.5756C20.4757 26.7859 20.5295 27.035 20.7049 27.1863L21.6808 28.0287C21.8461 28.1713 21.8598 28.4228 21.7109 28.5826L20.9973 29.3483C20.8514 29.5049 20.8208 29.7366 20.9209 29.9256L22.4823 33.7216C22.5712 33.7503 22.6606 33.7782 22.7504 33.8052V23.2101L21.7849 23.951L20.5728 26.5756Z" fill="#B2D9ED"/>
<path d="M32.7115 20.1531C31.6128 18.3715 32.0095 16.9429 31.9248 14.6287C31.9248 10.7501 29.0002 7.58573 25.3283 7.40694C21.3644 7.21382 18.0753 10.5885 18.0753 14.7315V17.4507C18.0753 18.5712 17.7203 19.4762 17.3029 20.153C16.9123 20.7865 17.3537 21.6201 18.0753 21.6201C18.7461 21.6201 31.2704 21.6201 31.9247 21.6201V21.6023L31.9391 21.6201C32.6608 21.6202 33.1022 20.7866 32.7115 20.1531Z" fill="#656582"/>
<path d="M21.0569 20.153C21.4743 19.4761 21.8294 18.5711 21.8294 17.4506V14.7314C21.8294 11.385 23.9754 8.54032 26.8895 7.67177C22.4166 6.35032 18.0753 9.94176 18.0753 14.7314V17.4506C18.0753 18.5711 17.7204 19.4761 17.3029 20.153C16.9123 20.7864 17.3537 21.6201 18.0753 21.6201C18.6589 21.6201 21.251 21.6201 21.8293 21.6201C21.1077 21.6201 20.6663 20.7865 21.0569 20.153Z" fill="#585877"/>
<path d="M29.9864 15.1412H29.87C29.87 15.9887 29.87 17.1432 29.87 17.7391H29.9864C30.8431 17.7391 31.5376 17.1576 31.5376 16.4401C31.5376 15.7227 30.8431 15.1412 29.9864 15.1412Z" fill="#EAB5AC"/>
<path d="M20.1103 15.1571H19.9953C19.1489 15.1571 18.4628 15.7316 18.4628 16.4404C18.4628 17.1492 19.1489 17.7237 19.9953 17.7237H20.1103V15.1571Z" fill="#EAB5AC"/>
<path d="M29.87 16.614C29.87 17.0528 29.87 17.4581 29.87 17.7392H29.9864C31.1415 17.7392 31.8738 16.7282 31.3849 15.8777C30.9162 16.6933 29.8893 16.6094 29.87 16.614Z" fill="#DB9E95"/>
<path d="M18.6177 15.8776C18.125 16.7219 18.8564 17.7235 19.9954 17.7235H20.1104V16.5983C20.0946 16.5946 19.0816 16.6727 18.6177 15.8776Z" fill="#DB9E95"/>
<path d="M20.1018 15.0345V18.4067C20.1018 20.109 21.0609 21.6756 22.5916 22.4207C26.2708 24.2117 29.8987 21.5802 29.8987 18.1003C29.8987 18.0181 29.8987 14.0149 29.8987 14.1545C29.8987 13.8612 29.5627 13.6977 29.3301 13.8764C28.9053 14.2028 28.228 14.6 27.2502 14.8375C26.9231 14.917 26.655 14.7064 26.655 14.3698V13.7518C26.655 13.5991 26.488 13.5057 26.3581 13.5856C25.4279 14.1582 22.9348 15.4612 20.423 14.7872C20.2608 14.7438 20.1018 14.8666 20.1018 15.0345Z" fill="#F4C3B8"/>
<path d="M21.8268 18.1004C21.8268 18.0436 21.8268 16.1165 21.8268 14.9757C21.3663 14.9707 20.895 14.9139 20.4229 14.7873C20.2608 14.7438 20.1018 14.8667 20.1018 15.0345V18.4067C20.1018 21.4703 23.0353 23.4248 25.8627 22.9226C23.5689 22.515 21.8268 20.5117 21.8268 18.1004Z" fill="#EAB5AC"/>
</g>
</g>
<defs>
<linearGradient id="paint0_linear" x1="24.3594" y1="35.6624" x2="24.3594" y2="7.40881" gradientUnits="userSpaceOnUse">
<stop stop-color="#ADDCFF"/>
<stop offset="0.5028" stop-color="#EAF6FF"/>
<stop offset="1" stop-color="#EAF6FF"/>
</linearGradient>
<clipPath id="clip0">
<rect width="53" height="53" fill="white"/>
</clipPath>
<clipPath id="clip1">
<rect width="26.9793" height="26.9793" fill="white" transform="translate(13.1473 7.39539)"/>
</clipPath>
</defs>
</svg>
