<svg width="26" height="26" viewBox="0 0 26 26" fill="none" xmlns="http://www.w3.org/2000/svg">
<path fill-rule="evenodd" clip-rule="evenodd" d="M9.90776 21.4469L19.4263 9.13756C19.9437 8.47376 20.1276 7.70632 19.9552 6.92491C19.8057 6.21453 19.3689 5.53909 18.7136 5.02668L17.1157 3.75732C15.7247 2.65099 14.0003 2.76745 13.0117 4.03681L11.9425 5.4238C11.8046 5.59731 11.8391 5.85352 12.0115 5.99326C12.0115 5.99326 14.713 8.15933 14.7705 8.20591C14.9545 8.3806 15.0924 8.61351 15.1269 8.893C15.1844 9.44034 14.805 9.95275 14.2417 10.0226C13.9773 10.0576 13.7244 9.97604 13.5405 9.82465L10.701 7.56541C10.563 7.46177 10.3561 7.48389 10.2411 7.62364L3.49307 16.3578C3.05622 16.9051 2.90678 17.6155 3.05622 18.3026L3.91841 22.0408C3.9644 22.2388 4.13684 22.3785 4.34376 22.3785L8.1374 22.332C8.82715 22.3203 9.47092 22.0059 9.90776 21.4469ZM15.4697 20.5327H21.6556C22.2591 20.5327 22.75 21.03 22.75 21.6414C22.75 22.2539 22.2591 22.75 21.6556 22.75H15.4697C14.8661 22.75 14.3752 22.2539 14.3752 21.6414C14.3752 21.03 14.8661 20.5327 15.4697 20.5327Z" fill="#66B9D4"/>
</svg>
