<svg width="26" height="26" viewBox="0 0 26 26" fill="none" xmlns="http://www.w3.org/2000/svg">
<path fill-rule="evenodd" clip-rule="evenodd" d="M12.8766 2.16675H18.3358C21.0655 2.16675 23.2917 4.33341 23.2917 6.97675V19.0234C23.2917 21.6776 21.0655 23.8334 18.3135 23.8334H12.8654C10.1358 23.8334 7.8984 21.6776 7.8984 19.0342V13.8342H14.8343L13.0444 15.5676C12.7088 15.8926 12.7088 16.4234 13.0444 16.7484C13.2122 16.9109 13.436 16.9867 13.6597 16.9867C13.8722 16.9867 14.096 16.9109 14.2638 16.7484L17.5304 13.5959C17.6982 13.4442 17.7877 13.2276 17.7877 13.0001C17.7877 12.7834 17.6982 12.5667 17.5304 12.4151L14.2638 9.26258C13.9282 8.93758 13.38 8.93758 13.0444 9.26258C12.7088 9.58758 12.7088 10.1184 13.0444 10.4434L14.8343 12.1659H7.8984V6.98758C7.8984 4.33341 10.1358 2.16675 12.8766 2.16675ZM2.70834 13C2.70834 12.545 3.09318 12.1658 3.55497 12.1658H7.89808V13.8341H3.55497C3.09318 13.8341 2.70834 13.4658 2.70834 13Z" fill="#66B9D4"/>
</svg>
