<svg width="55" height="39" viewBox="0 0 55 39" fill="none" xmlns="http://www.w3.org/2000/svg">
<path fill-rule="evenodd" clip-rule="evenodd" d="M31.1924 3.22217H23.4317C21.0296 3.22217 18.9587 5.16933 18.9587 7.57267V20.2298C18.9587 22.7685 20.8931 24.634 23.4317 24.634H32.7511C35.1544 24.634 37.1027 22.6332 37.1027 20.2298V9.3775L31.1924 3.22217Z" stroke="#484848" stroke-width="1.5" stroke-linecap="round" stroke-linejoin="round"/>
<path d="M30.886 3.2085V6.60233C30.886 8.259 32.2265 9.603 33.8832 9.6065C35.4185 9.61 36.99 9.61116 37.0961 9.60416" stroke="#484848" stroke-width="1.5" stroke-linecap="round" stroke-linejoin="round"/>
<path d="M30.6768 15.0665H24.959" stroke="#484848" stroke-width="1.5" stroke-linecap="round" stroke-linejoin="round"/>
<path d="M27.8177 17.9261V12.2083" stroke="#484848" stroke-width="1.5" stroke-linecap="round" stroke-linejoin="round"/>
<path d="M16.9022 37H16.0819V33.5308H16.0341L14.6703 36.8086H14.0414L12.6776 33.5308H12.6298V37H11.8095V32.0679H12.8417L14.3251 35.6602H14.3866L15.87 32.0679H16.9022V37ZM19.3174 33.8589C19.0645 33.8589 18.856 33.9421 18.6919 34.1084C18.5278 34.2747 18.4367 34.4946 18.4185 34.7681H20.1787C20.1696 34.4901 20.0876 34.269 19.9326 34.105C19.7777 33.9409 19.5726 33.8589 19.3174 33.8589ZM20.1855 35.9712H20.9888C20.909 36.313 20.721 36.583 20.4248 36.7812C20.1309 36.9772 19.7651 37.0752 19.3276 37.0752C18.7785 37.0752 18.3467 36.9043 18.0322 36.5625C17.7201 36.2184 17.564 35.7456 17.564 35.144C17.564 34.5425 17.7212 34.0662 18.0356 33.7153C18.3501 33.3621 18.7785 33.1855 19.3208 33.1855C19.854 33.1855 20.271 33.353 20.5718 33.688C20.8748 34.0207 21.0264 34.4821 21.0264 35.0723V35.3457H18.415V35.3901C18.4264 35.7023 18.5153 35.9495 18.6816 36.1318C18.8503 36.3118 19.0736 36.4019 19.3516 36.4019C19.7799 36.4019 20.0579 36.2583 20.1855 35.9712ZM23.9542 36.3232V33.9341H22.7169L22.6212 35.2603C22.587 35.7114 22.4936 36.0452 22.3409 36.2617V36.3232H23.9542ZM21.9171 37.9741H21.1378V36.3232H21.4317C21.6756 36.1774 21.818 35.8071 21.859 35.2124L21.9889 33.2607H24.8019V36.3232H25.3761V37.9741H24.5968V37H21.9171V37.9741ZM26.7658 35.3936H26.5949V37H25.7473V33.2607H26.5949V34.7578H26.759L28.0134 33.2607H28.9909L27.4562 34.9868L29.0627 37H28.0339L26.7658 35.3936ZM30.6302 36.395C30.8854 36.395 31.0984 36.3221 31.2693 36.1763C31.4402 36.0282 31.5257 35.8459 31.5257 35.6294V35.332L30.6814 35.3867C30.2166 35.4163 29.9842 35.585 29.9842 35.8926C29.9842 36.0475 30.0434 36.1706 30.1619 36.2617C30.2827 36.3506 30.4388 36.395 30.6302 36.395ZM30.3807 37.0615C30.0161 37.0615 29.7187 36.959 29.4886 36.7539C29.2584 36.5488 29.1434 36.2777 29.1434 35.9404C29.1434 35.6032 29.2653 35.3389 29.5091 35.1475C29.7552 34.9561 30.1061 34.8467 30.5618 34.8193L31.5257 34.7612V34.4468C31.5257 34.2622 31.4653 34.1209 31.3445 34.0229C31.2238 33.925 31.0494 33.876 30.8216 33.876C30.6256 33.876 30.4638 33.9102 30.3362 33.9785C30.2086 34.0446 30.1255 34.1403 30.0867 34.2656H29.2869C29.3211 33.9352 29.4806 33.6732 29.7654 33.4795C30.0525 33.2835 30.4183 33.1855 30.8626 33.1855C31.3411 33.1855 31.7103 33.2961 31.97 33.5171C32.2321 33.7381 32.3631 34.048 32.3631 34.4468V37H31.5462V36.4873H31.4881C31.3833 36.6673 31.2329 36.8086 31.0369 36.9111C30.8432 37.0114 30.6245 37.0615 30.3807 37.0615ZM35.1371 33.1992C35.6111 33.1992 35.9859 33.3713 36.2616 33.7153C36.5396 34.0594 36.6786 34.5311 36.6786 35.1304C36.6786 35.7274 36.5408 36.1991 36.265 36.5454C35.9916 36.8895 35.619 37.0615 35.1474 37.0615C34.8808 37.0615 34.6472 37.0068 34.4467 36.8975C34.2484 36.7858 34.1015 36.6309 34.0058 36.4326H33.9477V38.2441H33.1V33.2607H33.9169V33.8794H33.975C34.0821 33.6675 34.2382 33.5011 34.4433 33.3804C34.6506 33.2596 34.8819 33.1992 35.1371 33.1992ZM34.8705 36.3403C35.1645 36.3403 35.3935 36.2332 35.5575 36.019C35.7239 35.8049 35.807 35.5086 35.807 35.1304C35.807 34.7521 35.7239 34.4559 35.5575 34.2417C35.3935 34.0275 35.1656 33.9204 34.8739 33.9204C34.5845 33.9204 34.3555 34.0286 34.1869 34.2451C34.0183 34.4616 33.9328 34.7567 33.9306 35.1304C33.9328 35.5041 34.0172 35.7992 34.1835 36.0156C34.3521 36.2321 34.5811 36.3403 34.8705 36.3403ZM39.8901 33.2607V33.9375H38.7383V37H37.8906V33.9375H36.7388V33.2607H39.8901ZM41.5636 36.395C41.8188 36.395 42.0318 36.3221 42.2027 36.1763C42.3736 36.0282 42.4591 35.8459 42.4591 35.6294V35.332L41.6148 35.3867C41.15 35.4163 40.9176 35.585 40.9176 35.8926C40.9176 36.0475 40.9768 36.1706 41.0953 36.2617C41.2161 36.3506 41.3722 36.395 41.5636 36.395ZM41.3141 37.0615C40.9495 37.0615 40.6521 36.959 40.422 36.7539C40.1918 36.5488 40.0768 36.2777 40.0768 35.9404C40.0768 35.6032 40.1987 35.3389 40.4425 35.1475C40.6886 34.9561 41.0395 34.8467 41.4952 34.8193L42.4591 34.7612V34.4468C42.4591 34.2622 42.3987 34.1209 42.2779 34.0229C42.1572 33.925 41.9828 33.876 41.755 33.876C41.559 33.876 41.3972 33.9102 41.2696 33.9785C41.142 34.0446 41.0589 34.1403 41.0201 34.2656H40.2203C40.2545 33.9352 40.414 33.6732 40.6988 33.4795C40.9859 33.2835 41.3517 33.1855 41.796 33.1855C42.2745 33.1855 42.6437 33.2961 42.9034 33.5171C43.1655 33.7381 43.2965 34.048 43.2965 34.4468V37H42.4796V36.4873H42.4215C42.3167 36.6673 42.1663 36.8086 41.9703 36.9111C41.7766 37.0114 41.5579 37.0615 41.3141 37.0615Z" fill="#484848"/>
</svg>
