<svg width="26" height="26" viewBox="0 0 26 26" fill="none" xmlns="http://www.w3.org/2000/svg">
<g opacity="0.6">
<path fill-rule="evenodd" clip-rule="evenodd" d="M7.9403 2.16772H18.0478C21.7311 2.16772 23.8328 4.24772 23.8328 7.94189V18.0602C23.8328 21.7327 21.742 23.8344 18.0586 23.8344H7.9403C4.24614 23.8344 2.16614 21.7327 2.16614 18.0602V7.94189C2.16614 4.24772 4.24614 2.16772 7.9403 2.16772ZM13.8883 13.901H16.965C17.4633 13.8901 17.8641 13.4893 17.8641 12.991C17.8641 12.4926 17.4633 12.0918 16.965 12.0918H13.8883V9.03679C13.8883 8.53846 13.4875 8.13762 12.9891 8.13762C12.4908 8.13762 12.09 8.53846 12.09 9.03679V12.0918H9.02413C8.78579 12.0918 8.55829 12.1893 8.38496 12.3518C8.22246 12.5251 8.12496 12.7515 8.12496 12.991C8.12496 13.4893 8.52579 13.8901 9.02413 13.901H12.09V16.9668C12.09 17.4651 12.4908 17.866 12.9891 17.866C13.4875 17.866 13.8883 17.4651 13.8883 16.9668V13.901Z" fill="#008BB8"/>
</g>
</svg>
