<svg width="53" height="53" viewBox="0 0 53 53" fill="none" xmlns="http://www.w3.org/2000/svg">
<g clip-path="url(#clip0)">
<path d="M26.3148 52.9999C40.457 52.9999 51.9214 41.5355 51.9214 27.3933C51.9214 13.2511 40.457 1.78662 26.3148 1.78662C12.1726 1.78662 0.70813 13.2511 0.70813 27.3933C0.70813 41.5355 12.1726 52.9999 26.3148 52.9999Z" fill="#7AA0EA"/>
<path d="M27.8493 4.97496C27.3559 4.97496 26.956 4.57508 26.956 4.08162V2.40229C26.956 2.06296 26.6799 1.78678 26.3406 1.78678C26.0012 1.78678 25.7252 2.06296 25.7252 2.40229V4.08162C25.7252 4.57508 25.3252 4.97496 24.8318 4.97496C24.3385 4.97496 23.9385 4.57508 23.9385 4.08162V2.40229C23.9383 1.0776 25.0159 0 26.3405 0C27.665 0 28.7426 1.0776 28.7426 2.40229V4.08162C28.7426 4.57498 28.3427 4.97496 27.8493 4.97496Z" fill="#DAECF7"/>
<path d="M44.0743 5.03528H8.62673C7.72821 5.03528 6.99988 5.76361 6.99988 6.66213V44.2042C11.6942 49.5935 18.6066 53 26.315 53C34.0511 53 40.9859 49.5693 45.6812 44.1464V6.64215C45.6812 5.75461 44.9617 5.03528 44.0743 5.03528Z" fill="#5F6AB9"/>
<path d="M15.567 6.45498C15.567 5.84465 15.9036 5.31351 16.4009 5.03516H8.62673C7.72821 5.03516 6.99988 5.76349 6.99988 6.66201V44.2042C9.35651 46.9097 12.2724 49.1149 15.567 50.6409V6.45498Z" fill="#524FA1"/>
<path d="M39.4287 10.5536H13.2724C12.3738 10.5536 11.6455 11.2819 11.6455 12.1804C11.6455 13.0225 11.6455 44.2243 11.6455 44.9671C11.6455 46.0198 12.4988 46.8731 13.5514 46.8731H13.5516H41.0358V12.1606C41.0357 11.273 40.3162 10.5536 39.4287 10.5536Z" fill="#DAECF7"/>
<path d="M15.567 10.5536H13.2724C12.3738 10.5536 11.6455 11.2819 11.6455 12.1804C11.6455 12.9735 11.6455 44.2214 11.6455 44.9671C11.6455 46.0198 12.4988 46.8731 13.5514 46.8731H13.5515H15.5671L15.567 10.5536Z" fill="#B2D9ED"/>
<path d="M26.3403 13.5118C25.0012 13.5118 23.8476 12.6831 23.3917 11.4868H19.1427C17.8181 11.4868 16.7405 10.4092 16.7405 9.08454C16.7405 7.75985 17.8181 6.68225 19.1427 6.68225H33.538C34.8625 6.68225 35.9401 7.75985 35.9401 9.08454C35.9401 10.4092 34.8625 11.4868 33.538 11.4868H29.289C28.8331 12.6831 27.6793 13.5118 26.3403 13.5118ZM19.1427 8.46904C18.8033 8.46904 18.5273 8.74521 18.5273 9.08454C18.5273 9.42386 18.8033 9.70004 19.1427 9.70004H24.0899C24.5473 9.70004 24.9308 10.0456 24.9785 10.5005C25.0514 11.1986 25.637 11.7251 26.3404 11.7251C27.0438 11.7251 27.6294 11.1986 27.7024 10.5005C27.75 10.0456 28.1335 9.70004 28.5909 9.70004H33.5382C33.8775 9.70004 34.1536 9.42386 34.1536 9.08454C34.1536 8.74521 33.8775 8.46904 33.5382 8.46904H19.1427Z" fill="#FDCF49"/>
<path d="M31.433 8.48886H21.2476C20.8508 8.48886 20.5292 8.16724 20.5292 7.77046V4.44264C20.5292 4.04587 20.8508 3.72424 21.2476 3.72424H31.433C31.8298 3.72424 32.1514 4.04587 32.1514 4.44264V7.77046C32.1515 8.16724 31.8298 8.48886 31.433 8.48886Z" fill="#B2D9ED"/>
<path d="M26.3403 7.77044V4.44252C26.3403 4.04574 26.662 3.72412 27.0587 3.72412H21.2476C20.8508 3.72412 20.5292 4.04574 20.5292 4.44252V7.77034C20.5292 8.16712 20.8508 8.48874 21.2476 8.48874H27.0587C26.662 8.48884 26.3403 8.16722 26.3403 7.77044Z" fill="#92D1EA"/>
<path d="M41.0355 46.8731H13.5511C14.6037 46.8731 15.4571 46.0198 15.4571 44.9672V42.6271C15.4571 42.3406 15.6894 42.1084 15.9758 42.1084H42.3484C42.6759 42.1084 42.9414 42.3739 42.9414 42.7014V44.9673C42.9413 46.0198 42.088 46.8731 41.0355 46.8731Z" fill="#B2D9ED"/>
<path d="M28.5246 23.3077C26.4355 24.5139 23.7636 23.7984 22.5575 21.7092C21.3513 19.6201 22.0666 16.949 24.1558 15.7428L24.1567 15.7423C26.2458 14.5361 28.9172 15.2519 30.1233 17.3411C31.3295 19.4301 30.6138 22.1016 28.5246 23.3077Z" fill="#FB6467"/>
<path d="M25.4859 20.0185C24.5794 18.4484 24.7584 16.5497 25.7902 15.191C25.2307 15.2618 24.6757 15.4426 24.1567 15.7423L24.1558 15.7428C22.0666 16.9489 21.3513 19.6201 22.5575 21.7092C23.7636 23.7984 26.4355 24.5139 28.5246 23.3077C29.0439 23.0079 29.4779 22.6176 29.8191 22.1683C28.1265 22.3825 26.3924 21.5885 25.4859 20.0185Z" fill="#EF525A"/>
<path d="M28.0813 18.6318H27.2338V17.7843C27.2338 17.2909 26.8338 16.891 26.3405 16.891C25.8471 16.891 25.4471 17.2909 25.4471 17.7843V18.6318H24.5996C24.1063 18.6318 23.7063 19.0317 23.7063 19.5252C23.7063 20.0186 24.1063 20.4185 24.5996 20.4185H25.4471V21.2661C25.4471 21.7595 25.8471 22.1594 26.3405 22.1594C26.8338 22.1594 27.2338 21.7595 27.2338 21.2661V20.4185H28.0813C28.5746 20.4185 28.9746 20.0186 28.9746 19.5252C28.9746 19.0317 28.5747 18.6318 28.0813 18.6318Z" fill="white"/>
<path d="M17.0647 28.3022C16.5713 28.3022 16.1709 27.9023 16.1709 27.4088C16.1709 26.9154 16.5705 26.5155 17.0638 26.5155H17.0647C17.558 26.5155 17.958 26.9154 17.958 27.4088C17.958 27.9023 17.5581 28.3022 17.0647 28.3022Z" fill="white"/>
<path d="M35.3042 28.3022H20.2912C19.7978 28.3022 19.3978 27.9023 19.3978 27.4088C19.3978 26.9154 19.7978 26.5155 20.2912 26.5155H35.3042C35.7976 26.5155 36.1976 26.9154 36.1976 27.4088C36.1976 27.9023 35.7977 28.3022 35.3042 28.3022Z" fill="white"/>
<path d="M33.4409 31.8791H20.2912C19.7978 31.8791 19.3978 31.4792 19.3978 30.9857C19.3978 30.4923 19.7978 30.0924 20.2912 30.0924H33.4409C33.9342 30.0924 34.3342 30.4923 34.3342 30.9857C34.3342 31.4792 33.9343 31.8791 33.4409 31.8791Z" fill="white"/>
<path d="M32.4482 35.456H20.2912C19.7978 35.456 19.3978 35.0561 19.3978 34.5627C19.3978 34.0692 19.7978 33.6693 20.2912 33.6693H32.4481C32.9415 33.6693 33.3415 34.0692 33.3415 34.5627C33.3415 35.0561 32.9416 35.456 32.4482 35.456Z" fill="white"/>
<path d="M32.4482 39.0331H20.2912C19.7978 39.0331 19.3978 38.6333 19.3978 38.1398C19.3978 37.6463 19.7978 37.2465 20.2912 37.2465H32.4481C32.9415 37.2465 33.3415 37.6463 33.3415 38.1398C33.3415 38.6333 32.9416 39.0331 32.4482 39.0331Z" fill="white"/>
<path d="M17.0647 35.456C16.5713 35.456 16.1709 35.0561 16.1709 34.5627C16.1709 34.0692 16.5705 33.6693 17.0638 33.6693H17.0647C17.558 33.6693 17.958 34.0692 17.958 34.5627C17.958 35.0561 17.5581 35.456 17.0647 35.456Z" fill="white"/>
<path d="M44.6662 17.1453L49.4585 19.9122L51.2337 16.8375L46.4414 14.0706L44.6662 17.1453Z" fill="#DAECF7"/>
<path d="M44.6664 17.1452L49.4587 19.9121L50.322 18.4169L45.5297 15.65L44.6664 17.1452Z" fill="#B2D9ED"/>
<path d="M44.6667 17.1452L46.2883 18.0815L48.0636 15.0068L46.4419 14.0705L44.6667 17.1452Z" fill="#B2D9ED"/>
<path d="M44.6667 17.1461L46.2883 18.0824L47.1516 16.5872L45.5299 15.6509L44.6667 17.1461Z" fill="#92D1EA"/>
<path d="M50.9082 11.8687C49.5849 11.1047 47.8927 11.5581 47.1287 12.8814L46.376 14.1852L51.1681 16.952L51.9209 15.6482C52.6848 14.3249 52.2314 12.6328 50.9082 11.8687Z" fill="#FB6467"/>
<path d="M48.766 13.7979C49.3286 12.8234 50.3275 12.2586 51.3734 12.2059C51.233 12.0802 51.0779 11.9667 50.9082 11.8687C49.5848 11.1046 47.8928 11.5581 47.1287 12.8814L46.376 14.1852L48.0009 15.1232L48.766 13.7979Z" fill="#EF525A"/>
<path d="M44.7318 17.0331L35.8975 32.3346C36.1521 31.8935 36.7162 31.7423 37.1572 31.997C37.5983 32.2516 37.7495 32.8157 37.4948 33.2568L46.329 17.9553L44.7318 17.0331Z" fill="#FDB913"/>
<path d="M46.329 17.9553L37.4946 33.2568C37.7493 32.8157 38.3133 32.6646 38.7544 32.9192C39.1955 33.1739 39.3466 33.7379 39.092 34.179L47.9262 18.8775L46.329 17.9553Z" fill="#FDCF49"/>
<path d="M47.9266 18.8777L39.0924 34.1792C39.3471 33.7381 39.9111 33.5869 40.3522 33.8416C40.7933 34.0962 40.9444 34.6603 40.6898 35.1014L49.5241 19.7999L47.9266 18.8777Z" fill="#FDE57F"/>
<path d="M40.3522 33.8414C40.0288 33.6548 39.64 33.6868 39.3548 33.8907C39.3275 33.9102 39.2918 33.9133 39.2627 33.8966L39.2594 33.8946C39.2273 33.8761 39.2077 33.8409 39.2112 33.804C39.2437 33.4563 39.0771 33.1052 38.7549 32.9191C38.4316 32.7324 38.0427 32.7645 37.7576 32.9683C37.7291 32.9886 37.691 32.989 37.6608 32.9716C37.6295 32.9534 37.6103 32.9191 37.6137 32.8831C37.6468 32.5349 37.4803 32.1831 37.1575 31.9967C36.7164 31.7421 36.1524 31.8932 35.8977 32.3343L34.9897 38.4737C34.9207 38.9398 35.4578 39.2499 35.827 38.9571L40.6899 35.1011C40.9444 34.6602 40.7933 34.0961 40.3522 33.8414Z" fill="#F4C3B8"/>
<path d="M35.9111 38.8904L37.6297 32.942C37.618 32.9248 37.6114 32.9046 37.6134 32.8833C37.6466 32.535 37.48 32.1832 37.1573 31.9969C36.7162 31.7422 36.1521 31.8934 35.8975 32.3344L34.9894 38.4738C34.9205 38.94 35.4575 39.25 35.8268 38.9573L35.9111 38.8904Z" fill="#EAB5AC"/>
<path d="M36.7909 36.3206C36.3181 36.0476 35.8679 35.7506 35.4391 35.4335L34.9894 38.4739C34.9205 38.9401 35.4575 39.2501 35.8268 38.9574L38.2351 37.0477C37.7461 36.835 37.2638 36.5936 36.7909 36.3206Z" fill="#656582"/>
<path d="M35.457 39.0688C35.7169 39.0942 35.8673 38.9156 35.9111 38.8904L36.6738 36.2506C36.2439 35.9968 35.832 35.724 35.4391 35.4333L35.0113 38.3259C35.0084 38.4229 34.9425 38.5646 35.0266 38.7573C35.1026 38.9316 35.2713 39.0507 35.457 39.0688Z" fill="#585877"/>
<path d="M20.6983 44.4908C20.6983 43.423 21.3436 42.5063 22.2654 42.1084H15.9758C15.6893 42.1084 15.4571 42.3407 15.4571 42.6271V44.9672C15.4571 46.0198 14.6038 46.8731 13.5511 46.8731H22.2654C21.3436 46.4753 20.6983 45.5586 20.6983 44.4908Z" fill="#92D1EA"/>
</g>
<defs>
<clipPath id="clip0">
<rect width="53" height="53" fill="white"/>
</clipPath>
</defs>
</svg>
