<svg width="55" height="39" viewBox="0 0 55 39" fill="none" xmlns="http://www.w3.org/2000/svg">
<ellipse cx="28.5087" cy="8.49112" rx="5.57437" ry="5.57437" stroke="#484848" stroke-width="1.5" stroke-linecap="round" stroke-linejoin="round"/>
<path fill-rule="evenodd" clip-rule="evenodd" d="M19.6666 21.8182C19.6651 21.4264 19.7528 21.0393 19.9229 20.6863C20.4569 19.6184 21.9626 19.0524 23.212 18.7961C24.1131 18.6038 25.0266 18.4754 25.9458 18.4117C27.6476 18.2622 29.3592 18.2622 31.061 18.4117C31.9801 18.4761 32.8936 18.6045 33.7948 18.7961C35.0442 19.0524 36.5499 19.565 37.0839 20.6863C37.4261 21.4059 37.4261 22.2413 37.0839 22.9609C36.5499 24.0822 35.0442 24.5947 33.7948 24.8404C32.8948 25.0406 31.9809 25.1727 31.061 25.2355C29.6759 25.3529 28.2843 25.3743 26.8962 25.2995C26.5759 25.2995 26.2662 25.2995 25.9458 25.2355C25.0294 25.1735 24.119 25.0414 23.2227 24.8404C21.9626 24.5947 20.4676 24.0822 19.9229 22.9609C19.7537 22.6038 19.6661 22.2134 19.6666 21.8182Z" stroke="#484848" stroke-width="1.5" stroke-linecap="round" stroke-linejoin="round"/>
<path d="M4.77256 37H3.89072V32.8301H2.32187L2.18857 35.0825C2.17034 35.397 2.13275 35.6704 2.07578 35.9028C2.01881 36.133 1.93678 36.3358 1.82969 36.5112C1.72487 36.6844 1.58587 36.8154 1.41269 36.9043C1.2418 36.9932 1.03786 37.0376 0.800879 37.0376C0.670996 37.0376 0.56276 37.0239 0.476171 36.9966V36.2002C0.544531 36.2161 0.616308 36.2241 0.691504 36.2241C0.816829 36.2241 0.922786 36.1956 1.00937 36.1387C1.09596 36.0817 1.16318 35.9963 1.21103 35.8823C1.26116 35.7661 1.29762 35.6419 1.32041 35.5098C1.3432 35.3776 1.36029 35.217 1.37168 35.0278L1.52891 32.0679H4.77256V37ZM6.45625 37H5.61885V33.2607H6.45625V35.7354H6.51436L8.14131 33.2607H8.97529V37H8.14131V34.5083H8.07978L6.45625 37ZM12.8465 37H11.9988V35.4619H11.9407C11.7106 35.6647 11.4132 35.7661 11.0486 35.7661C10.6157 35.7661 10.2739 35.6396 10.0232 35.3867C9.77487 35.1338 9.65068 34.7988 9.65068 34.3818V33.2607H10.4983V34.3135C10.4983 34.5368 10.5599 34.7122 10.6829 34.8398C10.8082 34.9652 10.9848 35.0278 11.2127 35.0278C11.5477 35.0278 11.8097 34.931 11.9988 34.7373V33.2607H12.8465V37ZM16.0648 37V35.4141H14.4481V37H13.6005V33.2607H14.4481V34.7373H16.0648V33.2607H16.9125V37H16.0648ZM21.1426 37V33.2607H21.9868V37H21.1426ZM19.1533 35.0552H18.5142V36.3232H19.1533C19.363 36.3232 19.5293 36.2651 19.6523 36.1489C19.7777 36.0327 19.8403 35.8789 19.8403 35.6875C19.8403 35.4961 19.7777 35.3434 19.6523 35.2295C19.527 35.1133 19.3607 35.0552 19.1533 35.0552ZM17.6665 37V33.2607H18.5142V34.3818H19.2559C19.6911 34.3818 20.0374 34.5003 20.2949 34.7373C20.5547 34.9743 20.6846 35.2922 20.6846 35.6909C20.6846 36.0897 20.5547 36.4076 20.2949 36.6445C20.0374 36.8815 19.6911 37 19.2559 37H17.6665ZM23.5748 37H22.7374V33.2607H23.5748V35.7354H23.6329L25.2599 33.2607H26.0938V37H25.2599V34.5083H25.1983L23.5748 37ZM23.1271 31.5518H23.797C23.7993 31.7409 23.8528 31.8981 23.9576 32.0234C24.0647 32.1488 24.206 32.2114 24.3814 32.2114C24.5569 32.2114 24.697 32.1488 24.8019 32.0234C24.909 31.8981 24.9648 31.7409 24.9693 31.5518H25.6358C25.6358 31.8936 25.5196 32.1738 25.2872 32.3926C25.0571 32.6113 24.7551 32.7207 24.3814 32.7207C24.0077 32.7207 23.7047 32.6113 23.4723 32.3926C23.2421 32.1738 23.1271 31.8936 23.1271 31.5518ZM29.3792 35.3936H29.2083V37H28.3606V33.2607H29.2083V34.7578H29.3724L30.6268 33.2607H31.6043L30.0696 34.9868L31.6761 37H30.6473L29.3792 35.3936ZM33.2436 36.395C33.4988 36.395 33.7118 36.3221 33.8827 36.1763C34.0536 36.0282 34.1391 35.8459 34.1391 35.6294V35.332L33.2948 35.3867C32.83 35.4163 32.5976 35.585 32.5976 35.8926C32.5976 36.0475 32.6568 36.1706 32.7753 36.2617C32.8961 36.3506 33.0521 36.395 33.2436 36.395ZM32.994 37.0615C32.6295 37.0615 32.3321 36.959 32.102 36.7539C31.8718 36.5488 31.7567 36.2777 31.7567 35.9404C31.7567 35.6032 31.8786 35.3389 32.1225 35.1475C32.3686 34.9561 32.7195 34.8467 33.1752 34.8193L34.1391 34.7612V34.4468C34.1391 34.2622 34.0787 34.1209 33.9579 34.0229C33.8371 33.925 33.6628 33.876 33.435 33.876C33.239 33.876 33.0772 33.9102 32.9496 33.9785C32.822 34.0446 32.7388 34.1403 32.7001 34.2656H31.9003C31.9345 33.9352 32.094 33.6732 32.3788 33.4795C32.6659 33.2835 33.0316 33.1855 33.476 33.1855C33.9545 33.1855 34.3236 33.2961 34.5834 33.5171C34.8454 33.7381 34.9765 34.048 34.9765 34.4468V37H34.1596V36.4873H34.1015C33.9966 36.6673 33.8463 36.8086 33.6503 36.9111C33.4566 37.0114 33.2379 37.0615 32.994 37.0615ZM37.3574 36.3643C37.6559 36.3643 37.8872 36.2617 38.0513 36.0566C38.2176 35.8516 38.3008 35.5622 38.3008 35.1885C38.3008 34.8307 38.2176 34.5527 38.0513 34.3545C37.8872 34.1562 37.6559 34.0571 37.3574 34.0571C37.0589 34.0571 36.8265 34.1562 36.6602 34.3545C36.4961 34.5527 36.4141 34.8307 36.4141 35.1885C36.4141 35.5622 36.4961 35.8516 36.6602 36.0566C36.8242 36.2617 37.0566 36.3643 37.3574 36.3643ZM36.2158 34.0776H36.2739C36.5269 33.6082 36.945 33.3735 37.5283 33.3735C38.0228 33.3735 38.4204 33.5353 38.7212 33.8589C39.022 34.1802 39.1724 34.6177 39.1724 35.1714C39.1724 35.7616 39.0106 36.2264 38.687 36.5659C38.3657 36.9054 37.9259 37.0752 37.3677 37.0752C36.7821 37.0752 36.3309 36.8872 36.0142 36.5112C35.6997 36.1353 35.5425 35.577 35.5425 34.8364C35.5425 33.8931 35.6951 33.1912 36.0005 32.731C36.3081 32.2684 36.8105 32.0234 37.5078 31.9961L37.9487 31.979C38.1219 31.9722 38.2894 31.9551 38.4512 31.9277C38.6152 31.8981 38.7337 31.8719 38.8066 31.8491C38.8818 31.8263 38.9217 31.8127 38.9263 31.8081V32.5122C38.908 32.5236 38.8784 32.5384 38.8374 32.5566C38.7987 32.5749 38.6995 32.6011 38.54 32.6353C38.3828 32.6672 38.2028 32.6865 38 32.6934L37.5693 32.7104C37.3346 32.7196 37.1353 32.7549 36.9712 32.8164C36.8094 32.8779 36.6772 32.9691 36.5747 33.0898C36.4722 33.2106 36.3936 33.3496 36.3389 33.5068C36.2842 33.6641 36.2432 33.8543 36.2158 34.0776ZM40.5895 37H39.7521V33.2607H40.5895V35.7354H40.6476L42.2745 33.2607H43.1085V37H42.2745V34.5083H42.213L40.5895 37ZM46.3234 37V35.4141H44.7067V37H43.8591V33.2607H44.7067V34.7373H46.3234V33.2607H47.1711V37H46.3234ZM49.4974 33.8589C49.2444 33.8589 49.0359 33.9421 48.8719 34.1084C48.7078 34.2747 48.6167 34.4946 48.5984 34.7681H50.3587C50.3496 34.4901 50.2675 34.269 50.1126 34.105C49.9576 33.9409 49.7526 33.8589 49.4974 33.8589ZM50.3655 35.9712H51.1687C51.089 36.313 50.901 36.583 50.6048 36.7812C50.3108 36.9772 49.9451 37.0752 49.5076 37.0752C48.9585 37.0752 48.5267 36.9043 48.2122 36.5625C47.9 36.2184 47.7439 35.7456 47.7439 35.144C47.7439 34.5425 47.9012 34.0662 48.2156 33.7153C48.5301 33.3621 48.9585 33.1855 49.5008 33.1855C50.034 33.1855 50.451 33.353 50.7518 33.688C51.0548 34.0207 51.2063 34.4821 51.2063 35.0723V35.3457H48.595V35.3901C48.6064 35.7023 48.6953 35.9495 48.8616 36.1318C49.0302 36.3118 49.2535 36.4019 49.5315 36.4019C49.9599 36.4019 50.2379 36.2583 50.3655 35.9712ZM54.4281 33.2607V33.9375H53.2763V37H52.4286V33.9375H51.2768V33.2607H54.4281Z" fill="#484848"/>
</svg>
