<svg width="53" height="53" viewBox="0 0 53 53" fill="none" xmlns="http://www.w3.org/2000/svg">
<circle cx="26.5" cy="26.5" r="26.5" fill="#FFFDD0"/>
<mask id="mask0" style="mask-type:alpha" maskUnits="userSpaceOnUse" x="0" y="0" width="53" height="53">
<path d="M26.2976 53.0001C40.7097 53.0001 52.3929 41.3168 52.3929 26.9048C52.3929 12.4928 40.7097 0.80957 26.2976 0.80957C11.8856 0.80957 0.202393 12.4928 0.202393 26.9048C0.202393 41.3168 11.8856 53.0001 26.2976 53.0001Z" fill="#FDE57F"/>
</mask>
<g mask="url(#mask0)">
<path d="M36.2259 3.3125H16.4479C13.5429 3.3125 11.1797 5.61182 11.1797 8.43797C11.1797 10.2165 11.1797 29.1485 11.1797 41.7925C15.6319 49.595 24.1857 54.8763 34.0086 54.8763C36.5835 54.8763 39.0704 54.5118 41.4199 53.8358C41.4678 53.5584 41.4941 53.2739 41.4941 52.9836C41.4941 36.6352 41.4941 24.3622 41.4941 8.43797C41.4942 5.61182 39.1309 3.3125 36.2259 3.3125Z" fill="#5F6AB9"/>
<path d="M17.2144 9.55781C17.2144 6.1142 19.5689 3.3125 22.4629 3.3125H16.4282C13.5341 3.3125 11.1797 6.1142 11.1797 9.55781C11.1797 11.7249 11.1797 34.7933 11.1797 50.1999C12.7313 53.5257 14.7835 56.4748 17.2144 58.9048C17.2144 41.3665 17.2144 27.3275 17.2144 9.55781Z" fill="#524FA1"/>
<path d="M29.6035 6.97931H26.0723C25.6028 6.97931 25.2223 6.6091 25.2223 6.15237C25.2223 5.69565 25.6028 5.32544 26.0723 5.32544H29.6035C30.0729 5.32544 30.4535 5.69565 30.4535 6.15237C30.4535 6.6091 30.0729 6.97931 29.6035 6.97931Z" fill="#6D85D2"/>
<path d="M23.0869 6.97933C22.6129 6.97933 22.2369 6.60458 22.2369 6.15239C22.2369 5.63595 22.7241 5.24086 23.2535 5.34208C23.6676 5.42567 23.9369 5.7708 23.9369 6.15239C23.9369 6.60952 23.5569 6.97933 23.0869 6.97933Z" fill="#6D85D2"/>
<path d="M24.3779 64.1922C25.7006 64.1922 27.1972 64.3973 28.4668 64.1922C31.0157 63.1449 38.6113 51.0301 38.6113 50.3305C38.6113 48.9559 38.6113 13.5209 38.6113 8.67435C38.6113 7.27052 37.5571 6.13257 36.2565 6.13257H33.7859C33.2994 6.13257 32.9051 6.55814 32.9047 7.08316V7.68702C32.9047 8.49628 32.2913 9.15838 31.5416 9.15838H21.1478H21.1477C20.3981 9.15838 19.7846 8.49628 19.7846 7.68702V7.08316C19.7843 6.55814 19.3898 6.13257 18.9034 6.13257H16.4329C15.1324 6.13257 14.0781 7.27052 14.0781 8.67435V50.3305C18.8754 56.438 16.3787 64.1922 24.3779 64.1922Z" fill="#DAECF7"/>
<path d="M36.2257 6.1521H33.7607C33.2754 6.1521 32.882 6.5347 32.8816 7.00693V7.54996C32.8816 8.2777 32.2696 8.8731 31.5216 8.8731H31.5215H21.1517H21.1516C20.4037 8.8731 19.7916 8.2777 19.7916 7.54996V7.00693C19.7913 6.5348 19.3977 6.1521 18.9125 6.1521H16.4477C15.1501 6.1521 14.0983 7.17542 14.0983 8.43783V14.6844H38.5751C38.5751 11.259 38.5751 9.37645 38.5751 8.43783C38.5751 7.17542 37.5232 6.1521 36.2257 6.1521Z" fill="#BBEF89"/>
<path d="M17.2369 8.43783C17.2369 7.61673 17.4375 6.84076 17.7917 6.1521H16.4477C15.1501 6.1521 14.0983 7.17542 14.0983 8.43783V14.6844H17.2369C17.2369 12.6553 17.2369 10.5802 17.2369 8.43783Z" fill="#7DD776"/>
<path d="M29.0702 26.0737H23.4602C22.4818 26.0737 21.6886 26.8454 21.6886 27.7973V31.356C21.6886 31.5853 21.8797 31.7712 22.1154 31.7712H30.4478C30.6654 31.7712 30.8419 31.5996 30.8419 31.3879V27.7975C30.8419 26.8455 30.0487 26.0737 29.0702 26.0737Z" fill="#14C0EB"/>
<path d="M25.1914 27.7974C25.1914 26.8455 25.9844 26.0737 26.9628 26.0737H23.4602C22.477 26.0737 21.6886 26.8525 21.6886 27.7974V31.3561C21.6887 31.5854 21.8797 31.7712 22.1154 31.7712H25.1913L25.1914 27.7974Z" fill="#00ADDC"/>
<path d="M26.2655 24.7631C27.9019 24.7631 29.2285 23.4725 29.2285 21.8804C29.2285 20.2884 27.9019 18.9978 26.2655 18.9978C24.6292 18.9978 23.3026 20.2884 23.3026 21.8804C23.3026 23.4725 24.6292 24.7631 26.2655 24.7631Z" fill="#F4C3B8"/>
<path d="M26.2651 18.9983C24.0032 18.996 22.5535 21.3919 23.6989 23.322C24.8441 25.2518 27.7018 25.2286 28.8308 23.3217C26.5498 23.3194 25.1273 20.9205 26.2651 18.9983Z" fill="#EAB5AC"/>
<path d="M26.8841 52.2457H25.6466C25.1772 52.2457 24.7966 51.8755 24.7966 51.4187C24.7966 50.962 25.1772 50.5918 25.6466 50.5918H26.8841C27.3536 50.5918 27.7341 50.962 27.7341 51.4187C27.7341 51.8755 27.3536 52.2457 26.8841 52.2457Z" fill="#B2D9ED"/>
<path d="M33.4735 36.3612H21.7967C21.3273 36.3612 20.9468 35.9909 20.9468 35.5342C20.9468 35.0775 21.3273 34.7073 21.7967 34.7073H33.4736C33.9431 34.7073 34.3236 35.0775 34.3236 35.5342C34.3236 35.9909 33.943 36.3612 33.4735 36.3612Z" fill="white"/>
<path d="M18.7271 36.3612C18.2576 36.3612 17.8767 35.9909 17.8767 35.5342C17.8767 35.0775 18.2568 34.7073 18.7263 34.7073H18.7271C19.1965 34.7073 19.5771 35.0775 19.5771 35.5342C19.5771 35.9909 19.1965 36.3612 18.7271 36.3612Z" fill="white"/>
<path d="M33.4734 39.784H21.7966C21.3272 39.784 20.9467 39.4138 20.9467 38.9571C20.9467 38.5003 21.3272 38.1301 21.7966 38.1301H33.4735C33.9429 38.1301 34.3235 38.5003 34.3235 38.9571C34.3235 39.4138 33.9428 39.784 33.4734 39.784Z" fill="white"/>
<path d="M33.4734 43.2071H21.7966C21.3272 43.2071 20.9467 42.8369 20.9467 42.3802C20.9467 41.9234 21.3272 41.5532 21.7966 41.5532H33.4735C33.9429 41.5532 34.3235 41.9234 34.3235 42.3802C34.3235 42.8369 33.9428 43.2071 33.4734 43.2071Z" fill="white"/>
<path d="M33.4734 46.63H21.7966C21.3272 46.63 20.9467 46.2597 20.9467 45.803C20.9467 45.3463 21.3272 44.9761 21.7966 44.9761H33.4735C33.9429 44.9761 34.3235 45.3463 34.3235 45.803C34.3235 46.2597 33.9428 46.63 33.4734 46.63Z" fill="white"/>
<path d="M18.7271 43.2071C18.2576 43.2071 17.8767 42.8369 17.8767 42.3802C17.8767 41.9234 18.2568 41.5532 18.7263 41.5532H18.7271C19.1965 41.5532 19.5771 41.9234 19.5771 42.3802C19.5771 42.8369 19.1965 43.2071 18.7271 43.2071Z" fill="white"/>
<path d="M17.2167 14.3599C17.2167 13.5389 17.4173 12.7629 17.7716 12.0742H16.4275C15.1299 12.0742 14.0781 13.0975 14.0781 14.3599V51.8166C15.0212 52.8988 16.0539 53.9063 17.2167 54.8567C17.2167 40.4641 17.2167 28.9427 17.2167 14.3599Z" fill="#B2D9ED"/>
</g>
</svg>
