<svg width="53" height="53" viewBox="0 0 53 53" fill="none" xmlns="http://www.w3.org/2000/svg">
<g clip-path="url(#clip0)">
<path d="M26.5 52.9999C40.7434 52.9999 52.2899 41.4534 52.2899 27.2101C52.2899 12.9667 40.7434 1.42017 26.5 1.42017C12.2567 1.42017 0.710144 12.9667 0.710144 27.2101C0.710144 41.4534 12.2567 52.9999 26.5 52.9999Z" fill="#7AA0EA"/>
<path d="M36.3365 0H16.6635C13.774 0 11.4232 2.35074 11.4232 5.24027C11.4232 7.56554 11.4232 38.5691 11.4232 48.1345C15.6636 51.1952 20.8707 53 26.5 53C32.1292 53 37.3363 51.1952 41.5767 48.1344C41.5767 32.7155 41.5767 20.6495 41.5767 5.24017C41.5767 2.35074 39.226 0 36.3365 0Z" fill="#5F6AB9"/>
<path d="M17.1604 5.24027C17.1604 2.35074 19.5112 0 22.4006 0H16.6635C13.774 0 11.4232 2.35074 11.4232 5.24027C11.4232 7.56554 11.4232 38.5691 11.4232 48.1345C13.1821 49.4041 15.1078 50.4567 17.1604 51.2549C17.1604 36.0501 17.1604 7.17187 17.1604 5.24027Z" fill="#524FA1"/>
<path d="M29.7488 3.74893H26.2363C25.7694 3.74893 25.3909 3.37048 25.3909 2.90352C25.3909 2.43656 25.7695 2.05811 26.2363 2.05811H29.7488C30.2158 2.05811 30.5942 2.43656 30.5942 2.90352C30.5942 3.37048 30.2158 3.74893 29.7488 3.74893Z" fill="#6D85D2"/>
<path d="M23.267 3.74974C22.7955 3.74974 22.4216 3.36662 22.4216 2.90432C22.4216 2.37629 22.9062 1.97248 23.4328 2.07578C23.8448 2.16118 24.1126 2.51417 24.1126 2.90432C24.1125 3.37687 23.7303 3.74974 23.267 3.74974Z" fill="#6D85D2"/>
<path d="M26.4999 53C30.9029 53 35.0474 51.8958 38.6733 49.9501C38.6733 44.0162 38.6733 9.37832 38.6733 5.24029C38.6733 3.94955 37.627 2.90332 36.3364 2.90332H33.8845C33.4017 2.90332 33.0105 3.29451 33.01 3.7773V4.33246C33.01 5.07653 32.4013 5.6852 31.6573 5.6852H21.3425H21.3424C20.5984 5.6852 19.9896 5.07642 19.9896 4.33246V3.7773C19.9893 3.29461 19.5979 2.90332 19.1151 2.90332H16.6633C15.3726 2.90332 14.3263 3.94955 14.3263 5.24029V49.9501C17.9523 51.8958 22.097 53 26.4999 53Z" fill="#DAECF7"/>
<path d="M17.1603 5.24019C17.1603 4.40078 17.3597 3.60743 17.7122 2.90332H16.6634C15.3728 2.90332 14.3264 3.94955 14.3264 5.24029V49.9488C14.386 49.9808 14.4456 50.013 14.5055 50.0444C14.5248 50.0546 14.544 50.0648 14.5634 50.075C14.6715 50.1315 14.7801 50.1874 14.8892 50.2425C14.8976 50.2467 14.906 50.2511 14.9145 50.2553C15.644 50.6227 16.3933 50.9565 17.1603 51.2549C17.1603 36.0501 17.1603 7.17179 17.1603 5.24019Z" fill="#B2D9ED"/>
<path d="M36.3365 2.90342H33.8846C33.4018 2.90342 33.0106 3.29461 33.0101 3.77741V4.33256C33.0101 5.07653 32.4014 5.6853 31.6574 5.6853H31.6573H21.3425H21.3424C20.5984 5.6853 19.9896 5.07653 19.9896 4.33256V3.7773C19.9893 3.29461 19.5979 2.90332 19.1151 2.90332H16.6633C15.3726 2.90332 14.3263 3.94955 14.3263 5.24029V11.6268H38.6732C38.6732 8.12465 38.6732 6.19998 38.6732 5.24029C38.6735 3.94966 37.6271 2.90342 36.3365 2.90342Z" fill="#BBEF89"/>
<path d="M17.1603 5.24019C17.1603 4.40078 17.3597 3.60743 17.7122 2.90332H16.6634C15.3728 2.90332 14.3264 3.94955 14.3264 5.24029V11.6268H17.1602C17.1603 8.12486 17.1603 5.74866 17.1603 5.24019Z" fill="#7DD776"/>
<path d="M27.044 50.029H25.813C25.346 50.029 24.9676 49.6505 24.9676 49.1835C24.9676 48.7166 25.3461 48.3381 25.813 48.3381H27.044C27.511 48.3381 27.8894 48.7166 27.8894 49.1835C27.8894 49.6505 27.511 50.029 27.044 50.029Z" fill="#B2D9ED"/>
<path d="M26.4285 33.7887H19.9034C19.4364 33.7887 19.058 33.4103 19.058 32.9433C19.058 32.4764 19.4365 32.0979 19.9034 32.0979H26.4285C26.8955 32.0979 27.2739 32.4764 27.2739 32.9433C27.274 33.4103 26.8955 33.7887 26.4285 33.7887Z" fill="white"/>
<path d="M33.0964 37.2885H19.9034C19.4364 37.2885 19.058 36.91 19.058 36.4431C19.058 35.9761 19.4365 35.5977 19.9034 35.5977H33.0964C33.5633 35.5977 33.9418 35.9761 33.9418 36.4431C33.9418 36.91 33.5633 37.2885 33.0964 37.2885Z" fill="white"/>
<path d="M33.0964 40.788H19.9034C19.4364 40.788 19.058 40.4095 19.058 39.9426C19.058 39.4756 19.4365 39.0972 19.9034 39.0972H33.0964C33.5633 39.0972 33.9418 39.4756 33.9418 39.9426C33.9419 40.4095 33.5633 40.788 33.0964 40.788Z" fill="white"/>
<path d="M33.0964 44.2875H19.9034C19.4364 44.2875 19.058 43.909 19.058 43.4421C19.058 42.9751 19.4365 42.5967 19.9034 42.5967H33.0964C33.5633 42.5967 33.9418 42.9751 33.9418 43.4421C33.9418 43.909 33.5633 44.2875 33.0964 44.2875Z" fill="white"/>
<path d="M31.4574 21.9684L29.9377 19.3362L26.5474 21.2936L28.0671 23.9258C28.6076 24.862 29.8047 25.1827 30.7409 24.6422C31.6772 24.1016 31.998 22.9046 31.4574 21.9684Z" fill="#14C0EB"/>
<path d="M29.7622 23.1647L28.2425 20.5326L28.1483 20.3694L26.5474 21.2937L28.0671 23.9258C28.6075 24.862 29.8047 25.1828 30.7409 24.6422C30.9709 24.5094 31.1635 24.3368 31.3156 24.1383C30.691 24.0924 30.0991 23.7481 29.7622 23.1647Z" fill="#029DCC"/>
<path d="M24.7363 22.9187L21.4189 28.6645C21.9232 28.9739 22.5163 29.1525 23.1512 29.1525C24.9838 29.1525 26.4693 27.667 26.4693 25.8344C26.4694 24.5759 25.7687 23.4811 24.7363 22.9187Z" fill="#FB6467"/>
<path d="M25.7601 27.6464C24.5599 27.6464 23.5087 27.0091 22.926 26.0544L21.419 28.6647C21.9551 28.9936 22.5604 29.1525 23.1507 29.1527C23.1509 29.1527 23.1511 29.1527 23.1513 29.1527C24.2677 29.1527 25.316 28.5905 25.9333 27.6421C25.876 27.6449 25.8182 27.6463 25.7601 27.6464Z" fill="#EF525A"/>
<path d="M20.2778 24.1752C19.3615 25.7622 19.9053 27.7915 21.4924 28.7078L24.8105 22.9607C23.2234 22.0445 21.1942 22.5882 20.2778 24.1752Z" fill="#FDE57F"/>
<path d="M22.9778 26.135C22.6394 25.615 22.4421 24.9947 22.4421 24.3281C22.4421 23.6615 22.6394 23.0413 22.9778 22.5212C19.6943 22.6966 18.6371 27.0562 21.4925 28.7074L22.9778 26.135Z" fill="#FDCF49"/>
<path d="M31.373 22.9187L28.0556 28.6645C28.5599 28.9739 29.153 29.1525 29.7879 29.1525C31.6205 29.1525 33.106 27.667 33.106 25.8344C33.1061 24.5759 32.4054 23.4811 31.373 22.9187Z" fill="#FB6467"/>
<path d="M32.3968 27.6464C31.1965 27.6464 30.1453 27.0091 29.5626 26.0544L28.0557 28.6647C28.568 28.979 29.1742 29.1525 29.7874 29.1527C29.7876 29.1527 29.7878 29.1527 29.788 29.1527C30.8982 29.1527 31.9497 28.5949 32.57 27.6421C32.5126 27.6449 32.4549 27.6463 32.3968 27.6464Z" fill="#EF525A"/>
<path d="M26.9143 24.1752C25.998 25.7622 26.5418 27.7915 28.1289 28.7078L31.4469 22.9607C29.8599 22.0445 27.8306 22.5882 26.9143 24.1752Z" fill="#FDE57F"/>
<path d="M29.6144 26.135C29.276 25.615 29.0787 24.9947 29.0787 24.3281C29.0787 23.6615 29.276 23.0413 29.6144 22.5212C26.3159 22.6974 25.2835 27.0619 28.1291 28.7074L29.6144 26.135Z" fill="#FDCF49"/>
<path d="M29.9653 19.3837L28.4731 16.7991C27.9325 15.8629 26.7354 15.5421 25.7993 16.0827C24.8631 16.6232 24.5423 17.8203 25.0828 18.7565L26.575 21.341L29.9653 19.3837Z" fill="#BBEF89"/>
<path d="M26.7778 17.9953C26.3701 17.2892 26.4527 16.4346 26.9195 15.8253C26.5417 15.7976 26.1519 15.8789 25.7991 16.0825C24.8629 16.623 24.5421 17.8201 25.0827 18.7563L26.5748 21.3409L28.1757 20.4166L26.7778 17.9953Z" fill="#7DD776"/>
</g>
<defs>
<clipPath id="clip0">
<rect width="53" height="53" fill="white"/>
</clipPath>
</defs>
</svg>
