<svg width="56" height="39" viewBox="0 0 56 39" fill="none" xmlns="http://www.w3.org/2000/svg">
<path fill-rule="evenodd" clip-rule="evenodd" d="M27.5254 4.0143L30.2274 9.4498C30.3627 9.72397 30.624 9.9153 30.9274 9.95963L36.9765 10.8335C37.2215 10.8661 37.442 10.9945 37.5925 11.1905C37.8749 11.558 37.8317 12.0783 37.4934 12.3945L33.109 16.6341C32.8862 16.8441 32.787 17.1521 32.8454 17.452L33.8954 23.4346C33.9689 23.9305 33.6305 24.3948 33.1347 24.4753C32.9294 24.5068 32.7194 24.4741 32.5327 24.382L27.145 21.5575C26.8744 21.4105 26.55 21.4105 26.2794 21.5575L20.852 24.3971C20.3982 24.6281 19.8429 24.4566 19.5955 24.0121C19.501 23.8325 19.4684 23.6283 19.501 23.4288L20.551 17.4461C20.6035 17.1475 20.5044 16.8406 20.2874 16.6295L15.8797 12.391C15.5204 12.034 15.518 11.453 15.8762 11.0936C15.8774 11.0925 15.8785 11.0901 15.8797 11.089C16.0279 10.9548 16.2099 10.865 16.407 10.83L22.4574 9.95613C22.7595 9.9083 23.0197 9.7193 23.1574 9.44513L25.857 4.0143C25.9655 3.7938 26.158 3.62464 26.3914 3.54764C26.6259 3.46947 26.8825 3.48814 27.103 3.59897C27.2839 3.6888 27.432 3.83464 27.5254 4.0143Z" stroke="#484848" stroke-width="1.5" stroke-linecap="round" stroke-linejoin="round"/>
<path d="M3.92793 32.0679H5.91719C6.40937 32.0679 6.80814 32.2217 7.11348 32.5293C7.42109 32.8369 7.5749 33.2391 7.5749 33.7358C7.5749 34.2235 7.41654 34.62 7.0998 34.9253C6.78535 35.2306 6.37861 35.3833 5.87959 35.3833H4.80976V37H3.92793V32.0679ZM4.80976 32.8062V34.6519H5.68135C5.99808 34.6519 6.24303 34.5721 6.41621 34.4126C6.59167 34.2531 6.67939 34.0275 6.67939 33.7358C6.67939 33.4351 6.59281 33.2049 6.41963 33.0454C6.24873 32.8859 6.00378 32.8062 5.68476 32.8062H4.80976ZM9.66533 33.8589C9.4124 33.8589 9.20391 33.9421 9.03984 34.1084C8.87578 34.2747 8.78463 34.4946 8.76641 34.7681H10.5267C10.5175 34.4901 10.4355 34.269 10.2806 34.105C10.1256 33.9409 9.92054 33.8589 9.66533 33.8589ZM10.5335 35.9712H11.3367C11.257 36.313 11.069 36.583 10.7728 36.7812C10.4788 36.9772 10.1131 37.0752 9.67559 37.0752C9.12643 37.0752 8.69463 36.9043 8.38018 36.5625C8.068 36.2184 7.91191 35.7456 7.91191 35.144C7.91191 34.5425 8.06914 34.0662 8.38359 33.7153C8.69805 33.3621 9.12643 33.1855 9.66875 33.1855C10.202 33.1855 10.6189 33.353 10.9197 33.688C11.2228 34.0207 11.3743 34.4821 11.3743 35.0723V35.3457H8.76299V35.3901C8.77438 35.7023 8.86325 35.9495 9.02959 36.1318C9.19821 36.3118 9.42152 36.4019 9.69951 36.4019C10.1279 36.4019 10.4059 36.2583 10.5335 35.9712ZM12.9589 35.3936H12.788V37H11.9403V33.2607H12.788V34.7578H12.9521L14.2064 33.2607H15.184L13.6493 34.9868L15.2558 37H14.227L12.9589 35.3936ZM17.1104 37.0752C16.5498 37.0752 16.11 36.9032 15.791 36.5591C15.472 36.2127 15.3125 35.7365 15.3125 35.1304C15.3125 34.5288 15.4731 34.0549 15.7944 33.7085C16.1157 33.3599 16.5544 33.1855 17.1104 33.1855C17.6686 33.1855 18.1073 33.3587 18.4263 33.7051C18.7476 34.0514 18.9082 34.5265 18.9082 35.1304C18.9082 35.7365 18.7476 36.2127 18.4263 36.5591C18.1073 36.9032 17.6686 37.0752 17.1104 37.0752ZM16.4233 36.043C16.5851 36.2572 16.8141 36.3643 17.1104 36.3643C17.4066 36.3643 17.6344 36.2572 17.7939 36.043C17.9557 35.8265 18.0366 35.5223 18.0366 35.1304C18.0366 34.7407 17.9557 34.4377 17.7939 34.2212C17.6322 34.0047 17.4043 33.8965 17.1104 33.8965C16.8141 33.8965 16.5851 34.0047 16.4233 34.2212C16.2616 34.4377 16.1807 34.7407 16.1807 35.1304C16.1807 35.5223 16.2616 35.8265 16.4233 36.043ZM20.2877 37H19.4776V33.2607H20.5577L21.6651 35.8345H21.7267L22.8375 33.2607H23.8971V37H23.0836V34.457H23.0221L21.9898 36.8257H21.3814L20.3526 34.457H20.2877V37ZM26.2233 33.8589C25.9704 33.8589 25.7619 33.9421 25.5979 34.1084C25.4338 34.2747 25.3426 34.4946 25.3244 34.7681H27.0847C27.0756 34.4901 26.9935 34.269 26.8386 34.105C26.6836 33.9409 26.4785 33.8589 26.2233 33.8589ZM27.0915 35.9712H27.8947C27.815 36.313 27.627 36.583 27.3308 36.7812C27.0368 36.9772 26.6711 37.0752 26.2336 37.0752C25.6844 37.0752 25.2526 36.9043 24.9382 36.5625C24.626 36.2184 24.4699 35.7456 24.4699 35.144C24.4699 34.5425 24.6271 34.0662 24.9416 33.7153C25.2561 33.3621 25.6844 33.1855 26.2268 33.1855C26.76 33.1855 27.177 33.353 27.4777 33.688C27.7808 34.0207 27.9323 34.4821 27.9323 35.0723V35.3457H25.321V35.3901C25.3324 35.7023 25.4213 35.9495 25.5876 36.1318C25.7562 36.3118 25.9795 36.4019 26.2575 36.4019C26.6859 36.4019 26.9639 36.2583 27.0915 35.9712ZM30.9627 37V35.4141H29.346V37H28.4983V33.2607H29.346V34.7373H30.9627V33.2607H31.8104V37H30.9627ZM34.9535 36.3232V33.9341H33.7162L33.6205 35.2603C33.5863 35.7114 33.4929 36.0452 33.3402 36.2617V36.3232H34.9535ZM32.9164 37.9741H32.1371V36.3232H32.4311C32.6749 36.1774 32.8173 35.8071 32.8583 35.2124L32.9882 33.2607H35.8012V36.3232H36.3754V37.9741H35.5961V37H32.9164V37.9741ZM38.0283 36.395C38.2835 36.395 38.4966 36.3221 38.6675 36.1763C38.8384 36.0282 38.9238 35.8459 38.9238 35.6294V35.332L38.0796 35.3867C37.6147 35.4163 37.3823 35.585 37.3823 35.8926C37.3823 36.0475 37.4416 36.1706 37.5601 36.2617C37.6808 36.3506 37.8369 36.395 38.0283 36.395ZM37.7788 37.0615C37.4142 37.0615 37.1169 36.959 36.8867 36.7539C36.6566 36.5488 36.5415 36.2777 36.5415 35.9404C36.5415 35.6032 36.6634 35.3389 36.9072 35.1475C37.1533 34.9561 37.5042 34.8467 37.96 34.8193L38.9238 34.7612V34.4468C38.9238 34.2622 38.8634 34.1209 38.7427 34.0229C38.6219 33.925 38.4476 33.876 38.2197 33.876C38.0238 33.876 37.862 33.9102 37.7344 33.9785C37.6068 34.0446 37.5236 34.1403 37.4849 34.2656H36.6851C36.7192 33.9352 36.8787 33.6732 37.1636 33.4795C37.4507 33.2835 37.8164 33.1855 38.2607 33.1855C38.7393 33.1855 39.1084 33.2961 39.3682 33.5171C39.6302 33.7381 39.7612 34.048 39.7612 34.4468V37H38.9443V36.4873H38.8862C38.7814 36.6673 38.631 36.8086 38.4351 36.9111C38.2414 37.0114 38.0226 37.0615 37.7788 37.0615ZM44.3263 37.9741H43.547V37H40.4981V33.2607H41.3458V36.3232H42.9044V33.2607H43.752V36.3232H44.3263V37.9741ZM45.5383 37H44.7009V33.2607H45.5383V35.7354H45.5964L47.2233 33.2607H48.0573V37H47.2233V34.5083H47.1618L45.5383 37ZM49.6453 37H48.8079V33.2607H49.6453V35.7354H49.7034L51.3304 33.2607H52.1644V37H51.3304V34.5083H51.2688L49.6453 37Z" fill="#484848"/>
</svg>
