<svg width="16" height="22" viewBox="0 0 16 22" fill="none" xmlns="http://www.w3.org/2000/svg">
<path d="M14.8164 3.76739C13.419 1.46323 10.9371 0.055537 8.17709 0.00174023C8.05927 -0.000580077 7.94068 -0.000580077 7.82282 0.00174023C5.06286 0.055537 2.5809 1.46323 1.18352 3.76739C-0.244801 6.12259 -0.28388 8.95165 1.07897 11.3352L6.78843 21.3205C6.79099 21.325 6.79356 21.3294 6.79621 21.3338C7.04741 21.7509 7.49742 22 8.00004 22C8.50262 22 8.95263 21.7509 9.20379 21.3338C9.20644 21.3294 9.209 21.325 9.21157 21.3205L14.921 11.3352C16.2838 8.95165 16.2447 6.12259 14.8164 3.76739ZM7.99995 9.96876C6.21462 9.96876 4.76215 8.58091 4.76215 6.87501C4.76215 5.16911 6.21462 3.78127 7.99995 3.78127C9.78529 3.78127 11.2378 5.16911 11.2378 6.87501C11.2378 8.58091 9.78533 9.96876 7.99995 9.96876Z" fill="#50D08A"/>
</svg>
